<?xml version="1.0" encoding="UTF-8"?>
<svg version="1.1" xmlns="http://www.w3.org/2000/svg" width="500" height="500">
<path d="M0 0 C0.98838867 0.04302246 1.97677734 0.08604492 2.99511719 0.13037109 C10.17658026 0.49454013 10.17658026 0.49454013 12.4375 1.625 C13.84699696 1.88672028 15.26395646 2.10907151 16.68359375 2.30859375 C17.52083984 2.43169922 18.35808594 2.55480469 19.22070312 2.68164062 C20.98586078 2.93491932 22.75148959 3.18493646 24.51757812 3.43164062 C25.35611328 3.55603516 26.19464844 3.68042969 27.05859375 3.80859375 C27.8261499 3.91743896 28.59370605 4.02628418 29.38452148 4.13842773 C31.4375 4.625 31.4375 4.625 34.4375 6.625 C36.44355737 7.20012482 38.46715469 7.71572181 40.5 8.1875 C46.25526765 9.53388383 46.25526765 9.53388383 48.4375 10.625 C48.4375 11.285 48.4375 11.945 48.4375 12.625 C49.324375 12.74875 50.21125 12.8725 51.125 13 C54.14137502 13.56912736 56.64076054 14.39114436 59.4375 15.625 C59.4375 16.285 59.4375 16.945 59.4375 17.625 C60.12199219 17.70878906 60.80648437 17.79257813 61.51171875 17.87890625 C65.17534019 18.81315417 68.08535941 20.56916451 71.25 22.5625 C71.84748047 22.92279297 72.44496094 23.28308594 73.06054688 23.65429688 C74.55879015 24.58406384 76.00378564 25.59851929 77.4375 26.625 C77.4375 27.285 77.4375 27.945 77.4375 28.625 C78.15679687 28.8621875 78.87609375 29.099375 79.6171875 29.34375 C82.88327246 30.82751159 84.95610514 32.67004704 87.5625 35.125 C90.14160479 37.53948108 92.49351611 39.66234407 95.4375 41.625 C95.4375 42.285 95.4375 42.945 95.4375 43.625 C96.00339844 43.84414062 96.56929687 44.06328125 97.15234375 44.2890625 C100.16688612 46.05141035 101.83609138 48.26856882 104 51 C104.76441406 51.95648438 105.52882813 52.91296875 106.31640625 53.8984375 C107.01636719 54.79820312 107.71632813 55.69796875 108.4375 56.625 C109.02402344 57.35976562 109.61054688 58.09453125 110.21484375 58.8515625 C111.4375 60.625 111.4375 60.625 111.4375 62.625 C112.0975 62.625 112.7575 62.625 113.4375 62.625 C116.4375 68.25 116.4375 68.25 116.4375 71.625 C117.4275 71.955 118.4175 72.285 119.4375 72.625 C120.8852922 75.52058441 121.4375 77.36688938 121.4375 80.625 C122.0975 80.625 122.7575 80.625 123.4375 80.625 C126.78480007 88.11526983 129.42357466 95.56865799 131.54296875 103.49609375 C132.3433439 106.5323748 132.3433439 106.5323748 133.42407227 108.96679688 C137.21515108 118.91072994 136.7535522 130.15182764 136.69824219 140.64477539 C136.68752996 143.05575794 136.69819536 145.46599314 136.7109375 147.87695312 C136.72439693 162.08902016 135.14263707 175.11320834 130.4375 188.625 C130.22609375 189.25164551 130.0146875 189.87829102 129.796875 190.52392578 C126.77465519 199.43024943 123.12305189 207.47858049 118.26953125 215.5390625 C116.39424351 218.59742883 116.39424351 218.59742883 114.88671875 221.8359375 C113.55748389 224.3940876 112.51701434 225.7179077 110.4375 227.625 C109.12899577 229.21546225 107.83876999 230.82105688 106.5625 232.4375 C105.85351562 233.32695312 105.14453125 234.21640625 104.4140625 235.1328125 C103.29850279 236.53938779 102.18635293 237.94873292 101.0859375 239.3671875 C98.1813848 243.02257695 94.87369887 245.96713065 91.33203125 248.9765625 C89.30311415 250.68893867 89.30311415 250.68893867 87.125 253.0625 C77.46038325 262.27759969 66.16791198 269.2364049 53.3203125 272.765625 C50.53063958 273.49850533 50.53063958 273.49850533 48.4841156 274.6408844 C40.3353886 278.55920172 28.42504748 276.85199483 19.49609375 276.94140625 C17.76017296 276.96200929 16.02425682 276.98300657 14.28834534 277.00437927 C9.74616277 277.05925431 5.20393756 277.10881425 0.66168213 277.15722656 C-3.98404684 277.20769597 -8.62971481 277.26324849 -13.27539062 277.31835938 C-22.37104149 277.42551733 -31.46674559 277.52705419 -40.5625 277.625 C-37.5925 279.11 -37.5925 279.11 -34.5625 280.625 C-34.5625 281.285 -34.5625 281.945 -34.5625 282.625 C-33.9025 282.625 -33.2425 282.625 -32.5625 282.625 C-29.9955127 288.46282596 -29.23268193 292.6396724 -30.7265625 298.875 C-31.14035156 299.74125 -31.14035156 299.74125 -31.5625 300.625 C-32.5525 300.955 -33.5425 301.285 -34.5625 301.625 C-34.5625 302.615 -34.5625 303.605 -34.5625 304.625 C-38.70509293 306.6335299 -41.99271527 306.79117399 -46.5625 306.625 C-47.8825 306.625 -49.2025 306.625 -50.5625 306.625 C-51.2225 306.625 -51.8825 306.625 -52.5625 306.625 C-52.645 306.0475 -52.7275 305.47 -52.8125 304.875 C-53.39830488 302.46615479 -53.39830488 302.46615479 -55.5625 300.9375 C-58.29485043 297.77821981 -58.15980491 295.49776735 -58.3125 291.375 C-58.36921875 290.11171875 -58.4259375 288.8484375 -58.484375 287.546875 C-58.51015625 286.58265625 -58.5359375 285.6184375 -58.5625 284.625 C-57.5725 284.625 -56.5825 284.625 -55.5625 284.625 C-55.5625 283.305 -55.5625 281.985 -55.5625 280.625 C-54.964375 280.480625 -54.36625 280.33625 -53.75 280.1875 C-52.00099596 279.7377561 -50.27572977 279.19607659 -48.5625 278.625 C-52.68941616 279.29063164 -56.46344437 280.58565403 -60.37890625 282.00390625 C-62.5625 282.625 -62.5625 282.625 -66.5625 282.625 C-66.8925 283.615 -67.2225 284.605 -67.5625 285.625 C-69.43359375 286.84375 -69.43359375 286.84375 -72 288.125 C-77.48093106 290.99183746 -82.77977899 294.09513611 -88.0625 297.3125 C-88.85197021 297.78816406 -89.64144043 298.26382812 -90.45483398 298.75390625 C-91.20192627 299.21023438 -91.94901855 299.6665625 -92.71875 300.13671875 C-93.38712891 300.54365967 -94.05550781 300.95060059 -94.74414062 301.36987305 C-96.61402418 302.5699497 -96.61402418 302.5699497 -98.10351562 304.23754883 C-100.30193425 306.3281802 -102.62869349 306.2990215 -105.5625 306.625 C-105.03484877 299.5559192 -103.44233249 293.43297924 -101.125 286.75 C-100.81240234 285.81414062 -100.49980469 284.87828125 -100.17773438 283.9140625 C-98.89052387 280.12590812 -97.79496808 276.97370212 -95.5625 273.625 C-95.05473452 271.74180386 -94.60233984 269.84332302 -94.1875 267.9375 C-92.9191669 262.66123432 -91.21948975 258.32509017 -88.5625 253.625 C-88.21574219 252.93148437 -87.86898437 252.23796875 -87.51171875 251.5234375 C-80.39432782 237.67998985 -67.5837032 223.76725609 -53.5625 216.625 C-52.9025 216.625 -52.2425 216.625 -51.5625 216.625 C-51.5625 215.965 -51.5625 215.305 -51.5625 214.625 C-44.9375 211.625 -44.9375 211.625 -41.5625 211.625 C-41.5625 210.965 -41.5625 210.305 -41.5625 209.625 C-40.62148437 209.35945312 -39.68046875 209.09390625 -38.7109375 208.8203125 C-36.84308594 208.29050781 -36.84308594 208.29050781 -34.9375 207.75 C-33.09285156 207.22792969 -33.09285156 207.22792969 -31.2109375 206.6953125 C-28.93166093 206.02665963 -26.66299536 205.31921306 -24.4140625 204.5546875 C-11.42461109 200.31977046 6.34798833 201.15960116 19.4375 204.625 C20.04996582 204.78629395 20.66243164 204.94758789 21.29345703 205.11376953 C30.340701 207.55737706 38.40691246 210.70172523 46.4375 215.625 C49.88541278 217.71964678 49.88541278 217.71964678 53.4375 219.625 C53.4375 220.285 53.4375 220.945 53.4375 221.625 C56.67627584 221.97416193 56.67627584 221.97416193 59 219.125 C59.804375 218.3 60.60875 217.475 61.4375 216.625 C62.0975 216.625 62.7575 216.625 63.4375 216.625 C63.4375 215.965 63.4375 215.305 63.4375 214.625 C65.08052953 212.93502677 66.75221312 211.27283606 68.4375 209.625 C71.79814008 205.87982487 71.79814008 205.87982487 74.4375 201.625 C75.0975 201.625 75.7575 201.625 76.4375 201.625 C76.70304688 200.93019531 76.96859375 200.23539063 77.2421875 199.51953125 C78.54353076 196.36823924 80.02453383 193.35499829 81.5625 190.3125 C82.10132813 189.24386719 82.64015625 188.17523438 83.1953125 187.07421875 C83.60523438 186.26597656 84.01515625 185.45773437 84.4375 184.625 C85.0975 184.625 85.7575 184.625 86.4375 184.625 C86.52 183.738125 86.6025 182.85125 86.6875 181.9375 C87.37496924 177.0038972 88.98766648 172.34488354 90.5 167.61328125 C96.03499966 149.97046984 94.32239118 129.43189146 88.5625 112.0625 C88.19584229 110.95648438 88.19584229 110.95648438 87.82177734 109.828125 C86.57294466 106.26420482 85.17448412 103.03430876 83.2421875 99.78515625 C81.4375 96.625 81.4375 96.625 81.4375 93.625 C80.7775 93.625 80.1175 93.625 79.4375 93.625 C79.18097656 93.10292969 78.92445313 92.58085937 78.66015625 92.04296875 C73.85457347 82.80395271 66.68718342 72.37481005 57.625 66.9375 C56.903125 66.504375 56.18125 66.07125 55.4375 65.625 C55.4375 64.965 55.4375 64.305 55.4375 63.625 C54.73625 63.3775 54.035 63.13 53.3125 62.875 C50.4375 61.625 50.4375 61.625 47.75 59.8125 C34.09219345 50.79319379 19.43828209 46.83386217 3.4375 44.625 C3.4375 43.965 3.4375 43.305 3.4375 42.625 C-2.5025 42.625 -8.4425 42.625 -14.5625 42.625 C-14.5625 43.285 -14.5625 43.945 -14.5625 44.625 C-15.54089844 44.73457031 -16.51929688 44.84414062 -17.52734375 44.95703125 C-24.82377994 45.82075189 -31.70284251 46.881137 -38.5625 49.625 C-46.17159091 52.625 -46.17159091 52.625 -50.5625 52.625 C-50.5625 53.285 -50.5625 53.945 -50.5625 54.625 C-51.8309375 55.2128125 -51.8309375 55.2128125 -53.125 55.8125 C-56.33127988 57.50308393 -59.07401542 59.35787377 -61.94921875 61.5390625 C-63.5625 62.625 -63.5625 62.625 -66.5625 63.625 C-67.0575 64.285 -67.5525 64.945 -68.0625 65.625 C-69.5625 67.625 -69.5625 67.625 -72.5625 68.625 C-74.34505008 70.38381906 -74.34505008 70.38381906 -76.0625 72.5 C-78.15002057 74.98121963 -80.25453297 77.34847666 -82.5625 79.625 C-86.18323742 83.70993452 -88.98275932 87.81179256 -91.5625 92.625 C-92.11164063 93.60984375 -92.66078125 94.5946875 -93.2265625 95.609375 C-106.3150007 119.3356502 -109.13423139 147.41238705 -101.5625 173.625 C-100.69084699 176.06472981 -99.68824647 178.27969486 -98.5625 180.625 C-98.088125 181.73875 -97.61375 182.8525 -97.125 184 C-96.609375 185.19625 -96.09375 186.3925 -95.5625 187.625 C-95.24152344 188.39585937 -94.92054688 189.16671875 -94.58984375 189.9609375 C-94.25082031 190.75757813 -93.91179687 191.55421875 -93.5625 192.375 C-93.253125 193.11234375 -92.94375 193.8496875 -92.625 194.609375 C-91.50380113 196.73635522 -90.29842426 197.98090045 -88.5625 199.625 C-87.60451875 200.8593736 -86.66796542 202.11058482 -85.75 203.375 C-83.22074002 206.81073661 -80.52938339 210.02048755 -77.6640625 213.1796875 C-76.5625 214.625 -76.5625 214.625 -76.5625 216.625 C-75.9025 216.625 -75.2425 216.625 -74.5625 216.625 C-75.03895208 220.91306873 -76.22152484 222.89147487 -79.5625 225.625 C-80.2225 225.625 -80.8825 225.625 -81.5625 225.625 C-81.830625 226.264375 -82.09875 226.90375 -82.375 227.5625 C-83.5625 229.625 -83.5625 229.625 -86.5625 230.625 C-86.645 231.346875 -86.7275 232.06875 -86.8125 232.8125 C-87.72763224 236.2442459 -89.34030129 237.84725161 -91.5625 240.625 C-93.3394648 243.90632704 -94.96497421 247.25317302 -96.5625 250.625 C-99.471716 251.23108667 -100.78201091 251.49062396 -103.5625 250.625 C-106.62938306 247.5870498 -109.02558193 244.10651522 -111.5625 240.625 C-112.3875 239.8 -113.2125 238.975 -114.0625 238.125 C-132.70635801 219.48114199 -145.00324843 192.08290032 -148.203125 166.00390625 C-148.31416963 163.67547989 -148.31416963 163.67547989 -149.5625 162.625 C-149.67609989 159.89516611 -149.72668956 157.19163528 -149.73046875 154.4609375 C-149.73379715 153.63550446 -149.73712555 152.81007141 -149.74055481 151.95962524 C-149.74563038 150.20599933 -149.74796294 148.45236372 -149.74780273 146.69873047 C-149.7499739 144.03206054 -149.76807991 141.36581455 -149.78710938 138.69921875 C-149.79004635 136.99479308 -149.79202911 135.29036544 -149.79296875 133.5859375 C-149.80015427 132.79399994 -149.80733978 132.00206238 -149.81474304 131.18612671 C-149.79498515 126.32452014 -149.08197386 122.29159604 -147.5625 117.625 C-147.06124253 115.15020526 -146.58237808 112.67077875 -146.125 110.1875 C-145.07150923 104.73737907 -143.76889593 99.71668292 -141.5625 94.625 C-141.22605469 93.76132813 -140.88960937 92.89765625 -140.54296875 92.0078125 C-135.45479407 79.17676332 -129.04738871 67.52442617 -120.5625 56.625 C-119.92957031 55.78839844 -119.29664063 54.95179688 -118.64453125 54.08984375 C-115.79490807 50.35313105 -112.92566443 46.91446959 -109.5625 43.625 C-108.263125 42.26375 -108.263125 42.26375 -106.9375 40.875 C-104.5625 38.625 -104.5625 38.625 -102.5625 38.625 C-102.5625 37.965 -102.5625 37.305 -102.5625 36.625 C-100.734375 34.93359375 -100.734375 34.93359375 -98.3125 33.0625 C-97.52359375 32.44246094 -96.7346875 31.82242188 -95.921875 31.18359375 C-93.5625 29.625 -93.5625 29.625 -91.328125 29.09765625 C-90.74546875 28.94167969 -90.1628125 28.78570312 -89.5625 28.625 C-89.0675 27.14 -89.0675 27.14 -88.5625 25.625 C-86.26871741 24.10837763 -84.02794936 22.75447819 -81.625 21.4375 C-80.97853516 21.06947266 -80.33207031 20.70144531 -79.66601562 20.32226562 C-74.84696776 17.625 -74.84696776 17.625 -72.5625 17.625 C-72.5625 16.965 -72.5625 16.305 -72.5625 15.625 C-71.29410474 15.11884702 -70.02266898 14.62030901 -68.75 14.125 C-68.04230469 13.8465625 -67.33460938 13.568125 -66.60546875 13.28125 C-64.5625 12.625 -64.5625 12.625 -61.5625 12.625 C-61.5625 11.965 -61.5625 11.305 -61.5625 10.625 C-52.15247722 7.18080866 -52.15247722 7.18080866 -47.5625 7.625 C-47.5625 6.965 -47.5625 6.305 -47.5625 5.625 C-34.08151052 2.57595686 -34.08151052 2.57595686 -28.3125 2 C-24.75347666 1.86881972 -24.75347666 1.86881972 -22.5625 0.625 C-15.11700512 -0.80682594 -7.52549012 -0.33433114 0 0 Z " fill="#FEFEFE" transform="translate(263.5625,96.375)"/>
<path d="M0 0 C0.495 0.99 0.495 0.99 1 2 C1.66 2 2.32 2 3 2 C3 2.66 3 3.32 3 4 C3.928125 4.268125 4.85625 4.53625 5.8125 4.8125 C8.85688595 5.946683 9.89711622 6.69684158 12 9 C12.99 9.33 13.98 9.66 15 10 C15 10.66 15 11.32 15 12 C16.485 12.495 16.485 12.495 18 13 C18.495 13.99 18.495 13.99 19 15 C19.96679688 15.16822266 19.96679688 15.16822266 20.953125 15.33984375 C21.62859375 15.55769531 22.3040625 15.77554688 23 16 C24.046875 18.06640625 24.046875 18.06640625 24.75 20.5625 C24.99234375 21.38878906 25.2346875 22.21507812 25.484375 23.06640625 C25.65453125 23.70449219 25.8246875 24.34257812 26 25 C26.66 25 27.32 25 28 25 C29.17407021 27.26727333 30.33939739 29.53834624 31.5 31.8125 C31.83386719 32.45509766 32.16773438 33.09769531 32.51171875 33.75976562 C34.00239084 36.69547699 35 38.66126517 35 42 C35.66 42 36.32 42 37 42 C37 43.32 37 44.64 37 46 C38.62626404 47.38232443 40.2925002 48.71937515 42 50 C42 50.66 42 51.32 42 52 C43.65 52.33 45.3 52.66 47 53 C47.14179688 53.58394531 47.28359375 54.16789062 47.4296875 54.76953125 C47.93801403 56.7575754 48.52621196 58.72480586 49.125 60.6875 C50.39667169 65.70824822 50.34979116 71.30041768 48 76 C47.34 76 46.68 76 46 76 C45.938125 76.5775 45.87625 77.155 45.8125 77.75 C44.60537057 81.09281995 43.00704822 82.12059486 40 84 C37.66568904 84.57249077 35.37016521 84.99224669 32.98828125 85.3125 C30.83366437 85.82624982 30.83366437 85.82624982 29.796875 87.8984375 C29.53390625 88.59195313 29.2709375 89.28546875 29 90 C27.9375 92.625 27.9375 92.625 26 95 C23.80270244 95.66051029 21.61991597 96.02231834 19.359375 96.41015625 C15.43701061 97.39074735 13.05851637 99.38751727 10 102 C9.505 103.485 9.505 103.485 9 105 C5.9375 106.1875 5.9375 106.1875 3 107 C3 107.66 3 108.32 3 109 C-0.72965139 111.03435531 -2.66905042 112 -7 112 C-7 112.66 -7 113.32 -7 114 C-13.91075008 116.43810819 -20.05761263 117.49215946 -27.375 117.375 C-28.7513562 117.3608606 -28.7513562 117.3608606 -30.15551758 117.34643555 C-41.31523585 117.09888015 -50.26776396 114.4474684 -60 109 C-60 108.34 -60 107.68 -60 107 C-60.804375 106.731875 -61.60875 106.46375 -62.4375 106.1875 C-63.283125 105.795625 -64.12875 105.40375 -65 105 C-65.33 104.01 -65.66 103.02 -66 102 C-67.32775511 101.32229166 -68.66178306 100.65680868 -70 100 C-81.11452865 87.91295009 -85.14767843 73.19624249 -84.5 57.07421875 C-83.45253422 43.27647578 -77.30267183 32.0071771 -68 22 C-67.01 21.34 -66.02 20.68 -65 20 C-65.495 18.515 -65.495 18.515 -66 17 C-66.66 17 -67.32 17 -68 17 C-68.268125 17.598125 -68.53625 18.19625 -68.8125 18.8125 C-70.40149451 21.73959515 -72.01895619 23.5094781 -75 25 C-75.33 25.99 -75.66 26.98 -76 28 C-76.66 28 -77.32 28 -78 28 C-78.99 30.97 -79.98 33.94 -81 37 C-81.66 37 -82.32 37 -83 37 C-83.67918695 40.33090623 -84.34102292 43.66504168 -85 47 C-85.28617188 48.40185547 -85.28617188 48.40185547 -85.578125 49.83203125 C-87.08865385 57.54651787 -87.50944621 64.27417685 -86 72.0625 C-85.20430038 76.48367605 -84.79630526 80.5187157 -85 85 C-95.55808656 85.3690205 -95.55808656 85.3690205 -100 83 C-100 82.34 -100 81.68 -100 81 C-101.65 80.67 -103.3 80.34 -105 80 C-107.77689341 72.85457916 -108.58803392 64.56021058 -107 57 C-104.83837106 53.66978743 -102.44120857 51.90154738 -99 50 C-98.01 49.34 -97.02 48.68 -96 48 C-95.26393501 44.43230448 -95.26393501 44.43230448 -95 41 C-94.01 41 -93.02 41 -92 41 C-91.93941406 40.22914063 -91.87882813 39.45828125 -91.81640625 38.6640625 C-91.73261719 37.66117188 -91.64882812 36.65828125 -91.5625 35.625 C-91.48128906 34.62726563 -91.40007812 33.62953125 -91.31640625 32.6015625 C-91 30 -91 30 -90 28 C-89.34 28 -88.68 28 -88 28 C-87.67 26.35 -87.34 24.7 -87 23 C-86.34 23 -85.68 23 -85 23 C-84.38125 21.88625 -83.7625 20.7725 -83.125 19.625 C-81.86718769 17.36093785 -80.85384858 15.85384858 -79 14 C-78.01 14 -77.02 14 -76 14 C-76 13.01 -76 12.02 -76 11 C-75.236875 10.9175 -74.47375 10.835 -73.6875 10.75 C-70.44475565 9.84504809 -69.83734184 8.71226652 -68 6 C-67.34 6 -66.68 6 -66 6 C-66 5.34 -66 4.68 -66 4 C-64.35 4 -62.7 4 -61 4 C-61 3.34 -61 2.68 -61 2 C-41.12098062 -5.75647627 -20.46851866 -9.72376183 0 0 Z M-54 8 C-54 8.66 -54 9.32 -54 10 C-54.556875 10.12375 -55.11375 10.2475 -55.6875 10.375 C-58.2618003 11.07075684 -60.59880886 11.83185296 -63 13 C-63.33 13.99 -63.66 14.98 -64 16 C-63.34 16.66 -62.68 17.32 -62 18 C-60.02 17.01 -58.04 16.02 -56 15 C-56 14.34 -56 13.68 -56 13 C-55.26394531 12.80664062 -54.52789062 12.61328125 -53.76953125 12.4140625 C-52.30580078 12.02347656 -52.30580078 12.02347656 -50.8125 11.625 C-49.84957031 11.36976563 -48.88664062 11.11453125 -47.89453125 10.8515625 C-45.04843337 10.07868968 -45.04843337 10.07868968 -42.63110352 8.97216797 C-32.85099959 5.35851168 -18.22616404 6.59824888 -8.6875 10.5625 C0.2276942 14.77245282 12.23639899 21.21463738 16 31 C16.66 31 17.32 31 18 31 C18.99 33.97 19.98 36.94 21 40 C21.66 40 22.32 40 23 40 C24.77152634 47.63970735 25.1929527 54.99673683 25.1875 62.8125 C25.18814453 63.70735107 25.18878906 64.60220215 25.18945312 65.52416992 C25.14908336 70.44790494 24.82783824 75.14555655 24 80 C26.02784942 79.40756195 26.02784942 79.40756195 28 78 C31.66678304 67.33148644 29.94131457 54.8680431 28 44 C27.34 44 26.68 44 26 44 C25.80664062 43.21753906 25.61328125 42.43507812 25.4140625 41.62890625 C25.15367187 40.61699219 24.89328125 39.60507813 24.625 38.5625 C24.36976563 37.55316406 24.11453125 36.54382813 23.8515625 35.50390625 C23.27426046 32.84429676 23.27426046 32.84429676 21 32 C20.505 30.515 20.505 30.515 20 29 C19.34 29 18.68 29 18 29 C17.87625 28.38125 17.7525 27.7625 17.625 27.125 C17.12802644 24.80879168 17.12802644 24.80879168 15 23 C14.01 23 13.02 23 12 23 C11.95875 22.4225 11.9175 21.845 11.875 21.25 C10.56599744 17.88399342 7.99062016 16.8691376 5 15 C4.505 14.01 4.505 14.01 4 13 C1.59047977 11.75285597 1.59047977 11.75285597 -1 11 C-1.66 11.33 -2.32 11.66 -3 12 C-3 11.34 -3 10.68 -3 10 C-10.49216823 3.07730774 -23.08708316 3.42543312 -32.75390625 3.69921875 C-40.02071397 4.08937178 -47.10451839 5.70150613 -54 8 Z M-26.3125 93.0625 C-28.26252034 94.95984297 -28.26252034 94.95984297 -28.5 98 C-28.26252034 101.04015703 -28.26252034 101.04015703 -26.3125 102.9375 C-23.36948861 104.28969442 -22.01471387 104.11068406 -19 103 C-18.34 102.01 -17.68 101.02 -17 100 C-14.93701172 99.47583008 -14.93701172 99.47583008 -12.4296875 99.26953125 C-11.08583984 99.14868164 -11.08583984 99.14868164 -9.71484375 99.02539062 C-8.30912109 98.92000977 -8.30912109 98.92000977 -6.875 98.8125 C-5.45767578 98.6897168 -5.45767578 98.6897168 -4.01171875 98.56445312 C-1.67523326 98.36384579 0.66157176 98.1762523 3 98 C3 97.34 3 96.68 3 96 C3.95712891 95.92652344 3.95712891 95.92652344 4.93359375 95.8515625 C5.75988281 95.77679688 6.58617187 95.70203125 7.4375 95.625 C8.26121094 95.55539062 9.08492187 95.48578125 9.93359375 95.4140625 C10.61550781 95.27742188 11.29742187 95.14078125 12 95 C12.33 94.34 12.66 93.68 13 93 C12.38068604 93.09087891 11.76137207 93.18175781 11.12329102 93.27539062 C8.27060675 93.69017182 5.41660797 94.09513612 2.5625 94.5 C1.58861328 94.64308594 0.61472656 94.78617187 -0.38867188 94.93359375 C-6.32657597 95.76768061 -12.00424766 96.14880874 -18 96 C-18.33 95.01 -18.66 94.02 -19 93 C-21.97788882 92.09008953 -23.43497994 91.74039619 -26.3125 93.0625 Z " fill="#FEFEFE" transform="translate(286,178)"/>
<path d="M0 0 C0.495 0.99 0.495 0.99 1 2 C1.66 2 2.32 2 3 2 C3 2.66 3 3.32 3 4 C3.928125 4.268125 4.85625 4.53625 5.8125 4.8125 C8.85688595 5.946683 9.89711622 6.69684158 12 9 C12.99 9.33 13.98 9.66 15 10 C15 10.66 15 11.32 15 12 C16.485 12.495 16.485 12.495 18 13 C18.495 13.99 18.495 13.99 19 15 C19.96679688 15.16822266 19.96679688 15.16822266 20.953125 15.33984375 C21.62859375 15.55769531 22.3040625 15.77554688 23 16 C24.046875 18.06640625 24.046875 18.06640625 24.75 20.5625 C24.99234375 21.38878906 25.2346875 22.21507812 25.484375 23.06640625 C25.65453125 23.70449219 25.8246875 24.34257812 26 25 C26.66 25 27.32 25 28 25 C29.17407021 27.26727333 30.33939739 29.53834624 31.5 31.8125 C31.83386719 32.45509766 32.16773438 33.09769531 32.51171875 33.75976562 C34.00239084 36.69547699 35 38.66126517 35 42 C35.66 42 36.32 42 37 42 C37 43.32 37 44.64 37 46 C38.62626404 47.38232443 40.2925002 48.71937515 42 50 C42 50.66 42 51.32 42 52 C43.65 52.33 45.3 52.66 47 53 C47.14179688 53.58394531 47.28359375 54.16789062 47.4296875 54.76953125 C47.93801403 56.7575754 48.52621196 58.72480586 49.125 60.6875 C50.39667169 65.70824822 50.34979116 71.30041768 48 76 C47.34 76 46.68 76 46 76 C45.938125 76.5775 45.87625 77.155 45.8125 77.75 C44.60537057 81.09281995 43.00704822 82.12059486 40 84 C37.66568904 84.57249077 35.37016521 84.99224669 32.98828125 85.3125 C30.86030712 85.81383343 30.86030712 85.81383343 29.91796875 87.75 C29.61503906 88.4925 29.31210937 89.235 29 90 C27.76171875 92.69921875 27.76171875 92.69921875 26 95 C23.08203125 95.70703125 23.08203125 95.70703125 19.8125 95.8125 C18.18248047 95.88404297 18.18248047 95.88404297 16.51953125 95.95703125 C15.68808594 95.97121094 14.85664063 95.98539062 14 96 C14 94.35 14 92.7 14 91 C14.99 91 15.98 91 17 91 C17 90.34 17 89.68 17 89 C18.64503354 87.46313305 20.40287405 86.11683015 22.17578125 84.73046875 C27.78797609 79.40669506 28.65951491 72.41298855 29 65 C28.95615825 57.98918831 28.50169334 50.99098761 28 44 C27.34 44 26.68 44 26 44 C25.49384702 42.73160474 24.99530901 41.46016898 24.5 40.1875 C24.08234375 39.12595703 24.08234375 39.12595703 23.65625 38.04296875 C23 36 23 36 23 33 C22.01 32.67 21.02 32.34 20 32 C20 31.01 20 30.02 20 29 C19.34 29 18.68 29 18 29 C17.67 28.01 17.34 27.02 17 26 C15.824375 25.319375 15.824375 25.319375 14.625 24.625 C11.59626909 22.75007134 10.80501261 21.00835435 9 18 C7.35394174 16.96642853 5.69036558 15.95939668 4 15 C4 14.34 4 13.68 4 13 C1.69 12.67 -0.62 12.34 -3 12 C-3 11.34 -3 10.68 -3 10 C-16.5979089 2.57121367 -33.72097956 3.70502504 -48.2421875 7.34375 C-51 8 -51 8 -54 8 C-54 8.66 -54 9.32 -54 10 C-59.625 13 -59.625 13 -63 13 C-63.495 14.485 -63.495 14.485 -64 16 C-64.9590625 16.2165625 -64.9590625 16.2165625 -65.9375 16.4375 C-66.618125 16.623125 -67.29875 16.80875 -68 17 C-69.10836423 18.88316159 -69.10836423 18.88316159 -70 21 C-71.62839288 22.83194199 -72.80269814 23.90134907 -75 25 C-75.33 25.99 -75.66 26.98 -76 28 C-76.66 28 -77.32 28 -78 28 C-78.99 30.97 -79.98 33.94 -81 37 C-81.66 37 -82.32 37 -83 37 C-83.67918695 40.33090623 -84.34102292 43.66504168 -85 47 C-85.28617188 48.40185547 -85.28617188 48.40185547 -85.578125 49.83203125 C-87.08865385 57.54651787 -87.50944621 64.27417685 -86 72.0625 C-85.20430038 76.48367605 -84.79630526 80.5187157 -85 85 C-95.55808656 85.3690205 -95.55808656 85.3690205 -100 83 C-100 82.34 -100 81.68 -100 81 C-101.65 80.67 -103.3 80.34 -105 80 C-107.77689341 72.85457916 -108.58803392 64.56021058 -107 57 C-104.83837106 53.66978743 -102.44120857 51.90154738 -99 50 C-98.01 49.34 -97.02 48.68 -96 48 C-95.26393501 44.43230448 -95.26393501 44.43230448 -95 41 C-94.01 41 -93.02 41 -92 41 C-91.93941406 40.22914063 -91.87882813 39.45828125 -91.81640625 38.6640625 C-91.73261719 37.66117188 -91.64882812 36.65828125 -91.5625 35.625 C-91.48128906 34.62726563 -91.40007812 33.62953125 -91.31640625 32.6015625 C-91 30 -91 30 -90 28 C-89.34 28 -88.68 28 -88 28 C-87.67 26.35 -87.34 24.7 -87 23 C-86.34 23 -85.68 23 -85 23 C-84.38125 21.88625 -83.7625 20.7725 -83.125 19.625 C-81.86718769 17.36093785 -80.85384858 15.85384858 -79 14 C-78.01 14 -77.02 14 -76 14 C-76 13.01 -76 12.02 -76 11 C-75.236875 10.9175 -74.47375 10.835 -73.6875 10.75 C-70.44475565 9.84504809 -69.83734184 8.71226652 -68 6 C-67.34 6 -66.68 6 -66 6 C-66 5.34 -66 4.68 -66 4 C-64.35 4 -62.7 4 -61 4 C-61 3.34 -61 2.68 -61 2 C-41.12098062 -5.75647627 -20.46851866 -9.72376183 0 0 Z " fill="#F1F0F0" transform="translate(286,178)"/>
<path d="M0 0 C0.99 0.86625 1.98 1.7325 3 2.625 C3 3.285 3 3.945 3 4.625 C3.99 4.955 4.98 5.285 6 5.625 C7.64820195 8.22742414 8 9.48748779 8 12.625 C7.34 12.625 6.68 12.625 6 12.625 C6.33 14.275 6.66 15.925 7 17.625 C6.01 17.955 5.02 18.285 4 18.625 C2.78130071 21.12947516 2.78130071 21.12947516 2 23.625 C0.68 23.625 -0.64 23.625 -2 23.625 C-2 24.285 -2 24.945 -2 25.625 C-7.58364598 26.60458701 -11.69310909 27.08189394 -17 24.625 C-19.91394886 22.31116375 -21.67323224 20.1150919 -23 16.625 C-23.11362945 11.01705232 -22.75926964 5.57393067 -18.8984375 1.296875 C-17.95871094 0.46929687 -17.95871094 0.46929687 -17 -0.375 C-17 -0.705 -17 -1.035 -17 -1.375 C-10.76237219 -2.93440695 -5.42661438 -3.73491678 0 0 Z " fill="#F3F1F2" transform="translate(303,376.375)"/>
<path d="M0 0 C5.86132572 -0.52333265 9.42649598 0.05533807 14.30078125 3.4453125 C17.82668254 6.67130955 18.76877856 10.41448152 19.4375 15 C18.82576614 19.19474647 17.4540639 21.52340947 15 25 C12.75 25.9375 12.75 25.9375 11 26 C11 26.66 11 27.32 11 28 C6.52745503 29.49084832 2.47254497 29.49084832 -2 28 C-2 27.34 -2 26.68 -2 26 C-2.5775 25.95875 -3.155 25.9175 -3.75 25.875 C-7.29672174 24.49571932 -8.25436586 22.31068543 -10 19 C-11.36836208 14.69445308 -11.48413141 11.23865176 -9.5 7.125 C-7.76294667 4.439907 -6.31149028 3.4523234 -3.25 2.5625 C-2.1775 2.376875 -1.105 2.19125 0 2 C0 1.34 0 0.68 0 0 Z " fill="#F3F0F3" transform="translate(253,374)"/>
<path d="M0 0 C0.680625 -0.00386719 1.36125 -0.00773437 2.0625 -0.01171875 C7.12155878 -0.00172061 7.12155878 -0.00172061 9.375 1.125 C9.375 1.785 9.375 2.445 9.375 3.125 C10.035 3.125 10.695 3.125 11.375 3.125 C13.9419873 8.96282596 14.70481807 13.1396724 13.2109375 19.375 C12.93507812 19.9525 12.65921875 20.53 12.375 21.125 C11.385 21.455 10.395 21.785 9.375 22.125 C9.375 23.115 9.375 24.105 9.375 25.125 C5.23240707 27.1335299 1.94478473 27.29117399 -2.625 27.125 C-3.945 27.125 -5.265 27.125 -6.625 27.125 C-7.285 27.125 -7.945 27.125 -8.625 27.125 C-8.7075 26.5475 -8.79 25.97 -8.875 25.375 C-9.46080488 22.96615479 -9.46080488 22.96615479 -11.625 21.4375 C-14.35735043 18.27821981 -14.22230491 15.99776735 -14.375 11.875 C-14.43171875 10.61171875 -14.4884375 9.3484375 -14.546875 8.046875 C-14.57265625 7.08265625 -14.5984375 6.1184375 -14.625 5.125 C-13.635 5.125 -12.645 5.125 -11.625 5.125 C-11.625 3.805 -11.625 2.485 -11.625 1.125 C-7.79628327 -0.11197002 -3.97793434 -0.02286169 0 0 Z " fill="#F1F1F0" transform="translate(219.625,375.875)"/>
<path d="M0 0 C-0.7425 0.5775 -1.485 1.155 -2.25 1.75 C-4.66087643 3.72253526 -6.84042701 5.76044282 -9 8 C-9.33 6.68 -9.66 5.36 -10 4 C-9.01 4 -8.02 4 -7 4 C-7 2.68 -7 1.36 -7 0 C-3.98968256 -0.93423645 -3.13349732 -1.04449911 0 0 Z " fill="#F8F3FA" transform="translate(215,377)"/>
<path d="M0 0 C1 4 1 4 1 4 Z " fill="#FFFFFF" transform="translate(177,247)"/>
<path d="" fill="#FFFFFF" transform="translate(0,0)"/>
<path d="M0 0 C2 1 2 1 2 1 Z " fill="#FFFFFF" transform="translate(229,177)"/>
<path d="" fill="#FFFFFF" transform="translate(0,0)"/>
</svg>
