<?xml version="1.0" encoding="UTF-8"?>
<svg version="1.1" xmlns="http://www.w3.org/2000/svg" width="500" height="500">
<path d="M0 0 C29.17533534 -1.02447742 56.38937612 11.00742509 77.68359375 30.16015625 C78.91014744 31.12183162 80.13880109 32.08084589 81.37109375 33.03515625 C98.849191 48.12790524 110.2556042 74.47868716 112.68359375 97.16015625 C114.37338917 123.92986343 110.82623211 153.30881036 93.68359375 175.16015625 C92.93851563 176.13210938 92.1934375 177.1040625 91.42578125 178.10546875 C85.66776254 185.38375643 85.66776254 185.38375643 82.22265625 188.1015625 C79.78006393 190.08194119 77.99317796 192.21461043 76.02783203 194.65234375 C73.71150596 197.25053297 70.96767779 199.18088769 68.12109375 201.16015625 C67.50758057 201.58876953 66.89406738 202.01738281 66.26196289 202.45898438 C51.73836344 212.40516533 38.69212896 214.41279452 21.2890625 214.57421875 C19.31900993 214.60326797 19.31900993 214.60326797 17.30915833 214.63290405 C13.86525145 214.68358551 10.42130612 214.72354732 6.97723389 214.76104736 C3.4437154 214.80149538 -0.08965213 214.85239848 -3.62304688 214.90234375 C-10.52072222 214.99834199 -17.41849523 215.08298261 -24.31640625 215.16015625 C-23.52878906 215.62164062 -22.74117188 216.083125 -21.9296875 216.55859375 C-19.09008637 218.29885752 -17.80379941 219.18536994 -16.31640625 222.16015625 C-15.73792911 226.38383178 -15.99885053 230.07139379 -17.19140625 234.16015625 C-20.17827038 236.97132249 -22.78675651 237.08961991 -26.8046875 237.30078125 C-30.2597216 237.10734233 -32.49606542 236.13439483 -35.31640625 234.16015625 C-37.4246768 230.99775043 -37.6545809 229.65358156 -37.94140625 225.97265625 C-38.05355469 224.62107422 -38.05355469 224.62107422 -38.16796875 223.2421875 C-38.21695313 222.55511719 -38.2659375 221.86804688 -38.31640625 221.16015625 C-37.32640625 220.83015625 -36.33640625 220.50015625 -35.31640625 220.16015625 C-35.31640625 219.50015625 -35.31640625 218.84015625 -35.31640625 218.16015625 C-34.32640625 217.50015625 -33.33640625 216.84015625 -32.31640625 216.16015625 C-39.42662842 217.94420599 -45.17663672 220.50018094 -51.31640625 224.47265625 C-52.88146338 225.45580405 -54.44656721 226.43887751 -56.01171875 227.421875 C-56.75196289 227.89286621 -57.49220703 228.36385742 -58.25488281 228.84912109 C-60.88428154 230.52129911 -63.53097274 232.16284442 -66.19140625 233.78515625 C-66.91070312 234.23117187 -67.63 234.6771875 -68.37109375 235.13671875 C-70.34699981 236.17625166 -72.13471519 236.71990469 -74.31640625 237.16015625 C-75.43252483 233.81180052 -75.24871966 233.25769926 -74.09375 230.08984375 C-73.8057251 229.28417969 -73.5177002 228.47851562 -73.22094727 227.6484375 C-72.90182373 226.78605469 -72.5827002 225.92367187 -72.25390625 225.03515625 C-71.5944942 223.22025468 -70.93564938 221.40514693 -70.27734375 219.58984375 C-69.94444336 218.6781543 -69.61154297 217.76646484 -69.26855469 216.82714844 C-68.39849199 214.3900805 -67.58254244 211.94457457 -66.79296875 209.48046875 C-60.73315169 190.76546978 -49.38998366 175.70014324 -31.875 166.31640625 C-13.00270198 156.81406056 6.24454037 153.98894448 26.68359375 160.16015625 C35.00483932 163.10813521 42.84928724 167.11798747 50.68359375 171.16015625 C51.85921875 170.17015625 51.85921875 170.17015625 53.05859375 169.16015625 C55.68359375 167.16015625 55.68359375 167.16015625 57.68359375 167.16015625 C58.03164063 166.36738281 58.03164063 166.36738281 58.38671875 165.55859375 C59.75116009 163.03519923 61.38108805 160.82523894 63.11108398 158.54223633 C68.68009204 151.14327916 72.54140725 143.92082193 75.68359375 135.16015625 C76.01101563 134.26039063 76.3384375 133.360625 76.67578125 132.43359375 C82.30943723 114.67416394 80.0893414 94.77222308 71.7734375 78.2734375 C60.9342161 57.69883013 45.64417645 44.75997339 23.68359375 37.16015625 C5.50424513 31.68091232 -13.89066173 33.6353804 -31.171875 41.41796875 C-35.34506597 43.73007207 -39.27137483 46.31925722 -43.19140625 49.03515625 C-43.90562744 49.52886719 -44.61984863 50.02257812 -45.35571289 50.53125 C-60.02853914 61.09582282 -70.66257724 79.85647748 -73.92602539 97.46484375 C-76.65720439 116.32176443 -74.50539607 136.66197705 -63.33203125 152.56640625 C-61.77029555 154.57608165 -60.19695362 156.57411548 -58.61328125 158.56640625 C-58.15083008 159.15301025 -57.68837891 159.73961426 -57.21191406 160.34399414 C-56.29931686 161.49080759 -55.37200661 162.62610402 -54.42871094 163.74780273 C-51.30153633 167.60501252 -51.30153633 167.60501252 -51.375 170.34765625 C-52.69940493 172.89754789 -54.58721345 174.89635583 -56.4921875 177.02734375 C-60.95781917 182.24840348 -65.43866247 187.89078587 -68.31640625 194.16015625 C-70.55078125 194.42578125 -70.55078125 194.42578125 -73.31640625 194.16015625 C-76.79526144 191.29073555 -79.49088505 187.66324942 -82.31640625 184.16015625 C-83.07566406 183.22171875 -83.83492187 182.28328125 -84.6171875 181.31640625 C-100.51495529 160.88818649 -108.76152516 138.00308604 -108.69140625 112.09765625 C-108.69158752 111.06927139 -108.69158752 111.06927139 -108.69177246 110.02011108 C-108.66473293 99.24532818 -107.68210931 89.43256246 -104.31640625 79.16015625 C-104.02765625 78.11988281 -103.73890625 77.07960938 -103.44140625 76.0078125 C-99.49802151 62.61086703 -92.07781868 50.91350615 -83.31640625 40.16015625 C-82.70410156 39.38285156 -82.09179688 38.60554688 -81.4609375 37.8046875 C-73.03772119 27.65731604 -61.63220979 19.76407375 -50.31640625 13.16015625 C-49.36121094 12.59748047 -49.36121094 12.59748047 -48.38671875 12.0234375 C-33.83318214 4.12205389 -16.33960741 1.12971991 0 0 Z " fill="#4C6EE5" transform="translate(253.31640625,130.83984375)"/>
<path d="M0 0 C2.875 2.6875 2.875 2.6875 5 5 C5.86625 5.495 6.7325 5.99 7.625 6.5 C10.54399718 8.34357717 11.37908759 9.96078922 13 13 C13.85205771 14.29305883 14.70640171 15.58461278 15.5625 16.875 C17.24711308 19.53305716 18.39921251 21.89070628 19.1875 24.9375 C19.5896875 26.4534375 19.5896875 26.4534375 20 28 C20.66 28.33 21.32 28.66 22 29 C22 29.99 22 30.98 22 32 C23.97321053 33.3726682 25.97543152 34.70427617 28 36 C30.7938177 40.19072655 31.03790056 44.01986617 31 49 C29.35644392 55.26605755 26.34081281 57.84727349 21 61 C20.0925 61.495 19.185 61.99 18.25 62.5 C15.80434405 63.8881966 15.80434405 63.8881966 14.5 66.625 C13 69 13 69 10.6875 69.625 C9.800625 69.74875 8.91375 69.8725 8 70 C3.81256819 71.6554963 0.81348059 73.97427882 -2.5625 76.875 C-11.53522696 84.13353434 -20.79542144 86.85638599 -32.2890625 86.41796875 C-44.36547131 85.05778376 -55.01202333 80.31930612 -63 71 C-70.82280179 59.94502261 -72.95065097 49.4430081 -72 36 C-69.7285917 25.04532225 -64.69077195 15.12724369 -55.51171875 8.53515625 C-43.95698693 1.47293291 -31.31325049 -1.41524743 -17.90039062 1.44824219 C-6.22897135 4.95204747 3.05527781 12.84342388 8.81640625 23.484375 C13.87650223 34.23916646 14.21404367 45.35841557 12 57 C16.34044837 47.14021604 15.42480546 37.01755598 12 27 C9.18735832 19.98110304 9.18735832 19.98110304 4 15 C4 14.34 4 13.68 4 13 C3.34 12.67 2.68 12.34 2 12 C1.01 10.515 1.01 10.515 0 9 C-11.92331343 0.98702055 -24.64154026 -2.8423239 -38.9140625 -0.52734375 C-45.74229064 1.07873245 -51.17655919 4.18395687 -57 8 C-58.25683594 8.680625 -58.25683594 8.680625 -59.5390625 9.375 C-64.2881575 12.51091035 -66.66001003 16.92363297 -69.125 21.9375 C-69.87136719 23.43603516 -69.87136719 23.43603516 -70.6328125 24.96484375 C-73.29657515 30.87839684 -74.30343038 35.77021624 -74.1875 42.25 C-74.18105469 42.99564209 -74.17460937 43.74128418 -74.16796875 44.50952148 C-74.09104939 50.053124 -73.69875091 55.4973366 -73 61 C-79.40331132 61.44935518 -82.78969647 60.85562461 -88 57 C-90.78832642 51.59994118 -90.67478393 45.93316117 -90 40 C-88.20985978 36.86725462 -86.74459672 35.51058061 -83.8125 33.5 C-81.44051659 31.53697925 -81.32334554 29.99094626 -81 27 C-80.34 27 -79.68 27 -79 27 C-78.95101562 26.36191406 -78.90203125 25.72382813 -78.8515625 25.06640625 C-78.77679688 24.24011719 -78.70203125 23.41382813 -78.625 22.5625 C-78.55539063 21.73878906 -78.48578125 20.91507813 -78.4140625 20.06640625 C-78.20910156 19.04353516 -78.20910156 19.04353516 -78 18 C-77.34 17.67 -76.68 17.34 -76 17 C-75.67 16.01 -75.34 15.02 -75 14 C-74.02351983 12.97702078 -73.01868662 11.98095748 -72 11 C-71.319375 10.113125 -70.63875 9.22625 -69.9375 8.3125 C-69.298125 7.549375 -68.65875 6.78625 -68 6 C-67.34 6 -66.68 6 -66 6 C-65.67 5.34 -65.34 4.68 -65 4 C-59.80471408 -0.61803193 -55.06662849 -3.04356006 -48.5625 -5.5625 C-47.45003906 -5.99691406 -46.33757812 -6.43132812 -45.19140625 -6.87890625 C-30.08251383 -12.18643639 -13.07486822 -8.79783505 0 0 Z M-29 69 C-29.41666667 71.5 -29.41666667 71.5 -29 74 C-26.30844799 76.264384 -26.30844799 76.264384 -23.9375 75.75 C-21.80523025 75.07467282 -21.80523025 75.07467282 -20 73 C-17.61694549 72.5850546 -15.21676026 72.26582147 -12.8125 72 C-7.64279563 71.42272494 -2.90662902 70.69581079 2 69 C2.33 68.34 2.66 67.68 3 67 C2.17592651 67.13631836 2.17592651 67.13631836 1.33520508 67.27539062 C-1.17170729 67.68770304 -3.67957369 68.09390252 -6.1875 68.5 C-7.05181641 68.64308594 -7.91613281 68.78617187 -8.80664062 68.93359375 C-12.90526577 69.59314262 -16.83226024 70.20709266 -21 70 C-21.33 69.01 -21.66 68.02 -22 67 C-25.95457848 66.65176193 -25.95457848 66.65176193 -29 69 Z " fill="#4C6DE4" transform="translate(285,199)"/>
<path d="M0 0 C2.875 2.6875 2.875 2.6875 5 5 C5.86625 5.495 6.7325 5.99 7.625 6.5 C10.54399718 8.34357717 11.37908759 9.96078922 13 13 C13.85205771 14.29305883 14.70640171 15.58461278 15.5625 16.875 C17.24711308 19.53305716 18.39921251 21.89070628 19.1875 24.9375 C19.5896875 26.4534375 19.5896875 26.4534375 20 28 C20.66 28.33 21.32 28.66 22 29 C22 29.99 22 30.98 22 32 C23.97321053 33.3726682 25.97543152 34.70427617 28 36 C30.7938177 40.19072655 31.03790056 44.01986617 31 49 C29.35644392 55.26605755 26.34081281 57.84727349 21 61 C20.0925 61.495 19.185 61.99 18.25 62.5 C15.80434405 63.8881966 15.80434405 63.8881966 14.5 66.625 C13 69 13 69 10.6875 69.6875 C9.800625 69.790625 8.91375 69.89375 8 70 C5.99255385 70.64389782 3.99054876 71.30562253 2 72 C2.1875 69.25 2.1875 69.25 3 66 C5.4375 63.875 5.4375 63.875 8 62 C8.69748583 60.68252676 9.36959957 59.35085807 10 58 C10.99 57.34 11.98 56.68 13 56 C16.8652663 46.10018528 14.9182003 35.04900513 11.11328125 25.48828125 C8.64054961 19.30695653 8.64054961 19.30695653 4 15 C4 14.34 4 13.68 4 13 C3.34 12.67 2.68 12.34 2 12 C1.01 10.515 1.01 10.515 0 9 C-11.92331343 0.98702055 -24.64154026 -2.8423239 -38.9140625 -0.52734375 C-45.74229064 1.07873245 -51.17655919 4.18395687 -57 8 C-58.25683594 8.680625 -58.25683594 8.680625 -59.5390625 9.375 C-64.2881575 12.51091035 -66.66001003 16.92363297 -69.125 21.9375 C-69.87136719 23.43603516 -69.87136719 23.43603516 -70.6328125 24.96484375 C-73.29657515 30.87839684 -74.30343038 35.77021624 -74.1875 42.25 C-74.18105469 42.99564209 -74.17460937 43.74128418 -74.16796875 44.50952148 C-74.09104939 50.053124 -73.69875091 55.4973366 -73 61 C-79.40331132 61.44935518 -82.78969647 60.85562461 -88 57 C-90.78832642 51.59994118 -90.67478393 45.93316117 -90 40 C-88.20985978 36.86725462 -86.74459672 35.51058061 -83.8125 33.5 C-81.44051659 31.53697925 -81.32334554 29.99094626 -81 27 C-80.34 27 -79.68 27 -79 27 C-78.95101562 26.36191406 -78.90203125 25.72382813 -78.8515625 25.06640625 C-78.77679688 24.24011719 -78.70203125 23.41382813 -78.625 22.5625 C-78.55539063 21.73878906 -78.48578125 20.91507813 -78.4140625 20.06640625 C-78.20910156 19.04353516 -78.20910156 19.04353516 -78 18 C-77.34 17.67 -76.68 17.34 -76 17 C-75.67 16.01 -75.34 15.02 -75 14 C-74.02351983 12.97702078 -73.01868662 11.98095748 -72 11 C-71.319375 10.113125 -70.63875 9.22625 -69.9375 8.3125 C-69.298125 7.549375 -68.65875 6.78625 -68 6 C-67.34 6 -66.68 6 -66 6 C-65.67 5.34 -65.34 4.68 -65 4 C-59.80471408 -0.61803193 -55.06662849 -3.04356006 -48.5625 -5.5625 C-47.45003906 -5.99691406 -46.33757812 -6.43132812 -45.19140625 -6.87890625 C-30.08251383 -12.18643639 -13.07486822 -8.79783505 0 0 Z " fill="#040506" transform="translate(285,199)"/>
<path d="M0 0 C0.99 1.485 0.99 1.485 2 3 C-15.48098865 16.08488204 -29.29113813 21.20903982 -51.39453125 21.4140625 C-52.70789963 21.43342865 -54.02126801 21.4527948 -55.37443542 21.4727478 C-58.8183423 21.52342926 -62.26228763 21.56339107 -65.70635986 21.60089111 C-69.23987835 21.64133913 -72.77324588 21.69224223 -76.30664062 21.7421875 C-83.20431597 21.83818574 -90.10208898 21.92282636 -97 22 C-96.21238281 22.46148437 -95.42476562 22.92296875 -94.61328125 23.3984375 C-91.77368012 25.13870127 -90.48739316 26.02521369 -89 29 C-88.42152286 33.22367553 -88.68244428 36.91123754 -89.875 41 C-92.86186413 43.81116624 -95.47035026 43.92946366 -99.48828125 44.140625 C-102.94331535 43.94718608 -105.17965917 42.97423858 -108 41 C-110.10827055 37.83759418 -110.33817465 36.49342531 -110.625 32.8125 C-110.69976562 31.91144531 -110.77453125 31.01039063 -110.8515625 30.08203125 C-110.90054688 29.39496094 -110.94953125 28.70789063 -111 28 C-110.01 27.67 -109.02 27.34 -108 27 C-108 26.34 -108 25.68 -108 25 C-107.01 24.34 -106.02 23.68 -105 23 C-112.11022217 24.78404974 -117.86023047 27.34002469 -124 31.3125 C-125.56505713 32.2956478 -127.13016096 33.27872126 -128.6953125 34.26171875 C-129.80567871 34.96820557 -129.80567871 34.96820557 -130.93847656 35.68896484 C-133.56787529 37.36114286 -136.21456649 39.00268817 -138.875 40.625 C-139.59429687 41.07101562 -140.31359375 41.51703125 -141.0546875 41.9765625 C-143.03059356 43.01609541 -144.81830894 43.55974844 -147 44 C-148.13245944 40.60262169 -147.88998203 39.98511763 -146.70703125 36.75390625 C-146.25855835 35.50528809 -146.25855835 35.50528809 -145.80102539 34.23144531 C-145.47481201 33.35069336 -145.14859863 32.46994141 -144.8125 31.5625 C-144.16078593 29.75675295 -143.50974253 27.95076371 -142.859375 26.14453125 C-142.54033203 25.26619629 -142.22128906 24.38786133 -141.89257812 23.48291016 C-140.16835002 18.68657541 -138.58508071 13.84384912 -137 9 C-136.34 9.66 -135.68 10.32 -135 11 C-135.31011556 15.3416179 -136.73260321 18.99687157 -138.3125 22.9921875 C-139.14506767 25.21696152 -139.14506767 25.21696152 -139.5 28.5625 C-140.07771442 32.53428663 -141.36689509 35.34723078 -143 39 C-142.10796875 38.43410156 -141.2159375 37.86820312 -140.296875 37.28515625 C-139.11476004 36.54398893 -137.93245852 35.80311909 -136.75 35.0625 C-135.87021484 34.50272461 -135.87021484 34.50272461 -134.97265625 33.93164062 C-132.04093735 32.1034339 -129.44519771 30.53724618 -126 30 C-126 29.34 -126 28.68 -126 28 C-124.06629769 26.99267601 -122.12789694 25.99436712 -120.1875 25 C-119.10855469 24.443125 -118.02960938 23.88625 -116.91796875 23.3125 C-114 22 -114 22 -111 22 C-111 21.34 -111 20.68 -111 20 C-109.700625 20.020625 -108.40125 20.04125 -107.0625 20.0625 C-105.70834367 20.08399454 -104.35243917 20.07148199 -103 20 C-102.505 19.505 -102.505 19.505 -102 19 C-100.07489633 18.89209017 -98.14586523 18.85371737 -96.21777344 18.84228516 C-94.97848083 18.83202301 -93.73918823 18.82176086 -92.46234131 18.81118774 C-91.79466484 18.80774982 -91.12698837 18.8043119 -90.43907928 18.80076981 C-88.34342527 18.78897271 -86.24797662 18.76950912 -84.15240479 18.74765015 C-78.19151865 18.68612525 -72.23064424 18.63236389 -66.26953125 18.59863281 C-62.62420297 18.57745095 -58.97923419 18.54194632 -55.33411407 18.49787521 C-53.95494126 18.48387637 -52.57570466 18.47502995 -51.19646454 18.47182083 C-32.68860169 18.42427896 -13.52023143 13.52023143 0 0 Z " fill="#3C5ABF" transform="translate(326,324)"/>
<path d="M0 0 C3.40918784 2.12127244 5.78269305 4.12675063 7 8 C7.45208548 12.97294029 7.15736025 16.05329969 4 20 C0.21990143 22.36155412 -2.51866193 22.15950647 -6.80859375 21.5234375 C-10.20608987 20.71191436 -11.80931167 19.73836042 -14 17 C-15.52087057 12.26640284 -15.51392079 9.04687569 -13.3125 4.5625 C-9.20306031 0.00879656 -6.16113991 -0.64854104 0 0 Z " fill="#151415" transform="translate(259,346)"/>
<path d="M0 0 C3.27126315 2.6704189 4.65752177 4.10805716 5.40234375 8.22265625 C5.54892717 11.7347951 5.10936467 14.62503541 4.125 18 C1.13813587 20.81116624 -1.47035026 20.92946366 -5.48828125 21.140625 C-8.94331535 20.94718608 -11.17965917 19.97423858 -14 18 C-16.10827055 14.83759418 -16.33817465 13.49342531 -16.625 9.8125 C-16.69976562 8.91144531 -16.77453125 8.01039063 -16.8515625 7.08203125 C-16.90054688 6.39496094 -16.94953125 5.70789063 -17 5 C-16.01 4.67 -15.02 4.34 -14 4 C-14 3.34 -14 2.68 -14 2 C-9.67621019 -1.76588145 -5.24469068 -1.67868038 0 0 Z " fill="#151516" transform="translate(232,347)"/>
<path d="M0 0 C3.37285678 0.40474281 5.34539689 1.29666379 7.8515625 3.6171875 C10.40234405 7.13820497 11.14619379 11.079726 11.125 15.375 C9.42740943 18.6343739 7.96856915 19.85948552 4.875 21.75 C1.07431458 22.61379214 -2.14513421 22.55800794 -5.875 21.375 C-9.0536241 18.8050486 -10.58228109 17.25315673 -11.875 13.375 C-11.53640351 6.26447368 -11.53640351 6.26447368 -9.0625 2.9375 C-5.95080629 0.71486164 -3.74267764 0.48817534 0 0 Z " fill="#161515" transform="translate(284.875,345.625)"/>
<path d="M0 0 C2 3 2 3 2 7 C2.66 7 3.32 7 4 7 C4 7.66 4 8.32 4 9 C4.99 8.67 5.98 8.34 7 8 C10.69894682 12.64739473 13 15.83580545 13 22 C11.25246705 27.24259885 8.70254705 29.27252271 4 32 C3.13375 32.53625 2.2675 33.0725 1.375 33.625 C-0.71787271 34.83666315 -2.82180701 35.95124041 -5 37 C-4.731875 36.484375 -4.46375 35.96875 -4.1875 35.4375 C0.98082733 24.82882811 3.35758325 17.54169244 0 6 C-0.125 2.5625 -0.125 2.5625 0 0 Z " fill="#151514" transform="translate(301,226)"/>
<path d="M0 0 C0.99 0 1.98 0 3 0 C3.33 0.99 3.66 1.98 4 3 C3.01 4.485 3.01 4.485 2 6 C1.34 5.67 0.68 5.34 0 5 C0.33 5.53625 0.66 6.0725 1 6.625 C2.22699204 9.5391061 2.14233286 11.86867708 2 15 C1.34 15 0.68 15 0 15 C0.66 19.29 1.32 23.58 2 28 C-3.69792198 27.05034634 -5.07276144 26.70282493 -9 23 C-10.85226901 19.29546198 -10.45920277 15.04353547 -10 11 C-7.67473159 6.95231054 -4.93143634 5.33761079 -1 3 C-0.67 2.01 -0.34 1.02 0 0 Z " fill="#131314" transform="translate(207,230)"/>
<path d="M0 0 C0.66 0.66 1.32 1.32 2 2 C1.68988444 6.3416179 0.26739679 9.99687157 -1.3125 13.9921875 C-2.14506767 16.21696152 -2.14506767 16.21696152 -2.5 19.5625 C-3.07771442 23.53428663 -4.36689509 26.34723078 -6 30 C-4.66195312 29.15115234 -4.66195312 29.15115234 -3.296875 28.28515625 C-2.11476004 27.54398893 -0.93245852 26.80311909 0.25 26.0625 C1.12978516 25.50272461 1.12978516 25.50272461 2.02734375 24.93164062 C4.95906265 23.1034339 7.55480229 21.53724618 11 21 C11 20.34 11 19.68 11 19 C12.93370231 17.99267601 14.87210306 16.99436712 16.8125 16 C17.89144531 15.443125 18.97039062 14.88625 20.08203125 14.3125 C23 13 23 13 26 13 C26 12.34 26 11.68 26 11 C28.64 11 31.28 11 34 11 C31.21904226 13.25582903 28.71309602 14.61960092 25.34765625 15.81640625 C19.921961 17.910098 15.27652327 20.74206913 10.4375 23.9375 C5.70739683 27.02234989 0.97196842 30.08778972 -3.90234375 32.94140625 C-4.61769287 33.36236572 -5.33304199 33.7833252 -6.07006836 34.21704102 C-8 35 -8 35 -11 34 C-8.6156509 24.0992742 -5.13241719 14.5782645 -1.70849609 5.00195312 C-1.12068216 3.34100403 -0.5571604 1.6714812 0 0 Z " fill="#3760D6" transform="translate(189,333)"/>
<path d="M0 0 C3.18361716 4.18567371 6.20384254 8.48646704 9.24023438 12.77929688 C9.66498047 13.37677734 10.08972656 13.97425781 10.52734375 14.58984375 C10.93968262 15.17233887 11.35202148 15.75483398 11.77685547 16.35498047 C12.89807895 17.86292534 14.1344329 19.28345529 15.37890625 20.69140625 C17 23 17 23 16.91015625 25.12109375 C15.64399862 27.7349213 13.74742984 29.71579882 11.82421875 31.8671875 C7.35858708 37.08824723 2.87774378 42.73062962 0 49 C-2.203125 49.296875 -2.203125 49.296875 -5 49 C-7.421875 46.953125 -7.421875 46.953125 -9.75 44.25 C-10.52859375 43.36828125 -11.3071875 42.4865625 -12.109375 41.578125 C-13.82927082 39.23281252 -14.60285583 37.83296176 -15 35 C-11.18063472 36.55603771 -8.73955562 38.95604931 -6 42 C-6 42.66 -6 43.32 -6 44 C-4.68 44.33 -3.36 44.66 -2 45 C-1.52949219 44.24074219 -1.05898437 43.48148437 -0.57421875 42.69921875 C0.04839844 41.70535156 0.67101562 40.71148437 1.3125 39.6875 C1.92738281 38.70136719 2.54226562 37.71523438 3.17578125 36.69921875 C4.66925078 34.48939553 5.94744335 32.68459131 8 31 C8.66 31 9.32 31 10 31 C11.4070473 28.3735117 12.62816493 25.97468053 13 23 C12.14209817 20.78228936 12.14209817 20.78228936 11 19 C10.34 19 9.68 19 9 19 C7.76318359 17.62304688 7.76318359 17.62304688 6.3984375 15.71875 C5.90859375 15.04199219 5.41875 14.36523438 4.9140625 13.66796875 C4.40617187 12.95253906 3.89828125 12.23710937 3.375 11.5 C2.6015625 10.42685547 2.6015625 10.42685547 1.8125 9.33203125 C0.53577041 7.55879571 -0.73470027 5.78140052 -2 4 C-1.34 2.68 -0.68 1.36 0 0 Z " fill="#355BD0" transform="translate(185,276)"/>
<path d="M0 0 C8.8362201 16.28937967 6.89140206 40.92458804 2.8515625 58.41015625 C2 61 2 61 0 64 C-0.33 63.67 -0.66 63.34 -1 63 C-0.93485027 61.28833903 -0.79681924 59.57926111 -0.625 57.875 C-0.52574219 56.88628906 -0.42648437 55.89757812 -0.32421875 54.87890625 C0.04823837 51.57166651 0.48847065 48.28840297 1 45 C2.485 44.505 2.485 44.505 4 44 C3.34 43.01 2.68 42.02 2 41 C1.71289062 38.90966797 1.71289062 38.90966797 1.65625 36.4921875 C1.62772949 35.59532227 1.59920898 34.69845703 1.56982422 33.77441406 C1.54678223 32.81760742 1.52374023 31.86080078 1.5 30.875 C1.23768251 22.87893032 0.69046003 15.02792888 -0.42773438 7.10498047 C-1.09675809 2.19351619 -1.09675809 2.19351619 0 0 Z " fill="#3F5ED3" transform="translate(361,210)"/>
<path d="M0 0 C3.27126315 2.6704189 4.65752177 4.10805716 5.40234375 8.22265625 C5.54892717 11.7347951 5.10936467 14.62503541 4.125 18 C1.13813587 20.81116624 -1.47035026 20.92946366 -5.48828125 21.140625 C-8.94331535 20.94718608 -11.17965917 19.97423858 -14 18 C-16.10827055 14.83759418 -16.33817465 13.49342531 -16.625 9.8125 C-16.69976562 8.91144531 -16.77453125 8.01039063 -16.8515625 7.08203125 C-16.90054688 6.39496094 -16.94953125 5.70789063 -17 5 C-16.01 4.67 -15.02 4.34 -14 4 C-14 3.34 -14 2.68 -14 2 C-9.67621019 -1.76588145 -5.24469068 -1.67868038 0 0 Z M-13 5 C-14.54586876 8.09173752 -14.29359521 10.59429552 -14 14 C-12.22189994 16.4131358 -10.82561756 17.61471181 -8.125 18.875 C-5.03218848 19.05693009 -2.82050199 18.22630521 0 17 C2.65147209 13.02279187 2.85388169 9.67892313 2 5 C-0.50018506 2.64268266 -2.14169276 2.12874609 -5.5 1.625 C-8.59192612 2.08878892 -10.47824056 3.17872929 -13 5 Z " fill="#030305" transform="translate(232,347)"/>
<path d="M0 0 C3.37285678 0.40474281 5.34539689 1.29666379 7.8515625 3.6171875 C10.40234405 7.13820497 11.14619379 11.079726 11.125 15.375 C9.42740943 18.6343739 7.96856915 19.85948552 4.875 21.75 C1.07431458 22.61379214 -2.14513421 22.55800794 -5.875 21.375 C-9.0536241 18.8050486 -10.58228109 17.25315673 -11.875 13.375 C-11.53640351 6.26447368 -11.53640351 6.26447368 -9.0625 2.9375 C-5.95080629 0.71486164 -3.74267764 0.48817534 0 0 Z M-7.875 6.375 C-8.30613797 10.07514615 -8.15830167 13.66689589 -7.875 17.375 C-2.99092085 20.01623771 -2.99092085 20.01623771 2.375 19.75 C5.7947809 18.14736017 5.7947809 18.14736017 8.125 15.375 C8.77841537 10.96444623 8.63818284 9.0843998 6 5.4375 C3.29481901 3.1764745 3.29481901 3.1764745 0.125 2.875 C-4.39309061 3.58012665 -4.39309061 3.58012665 -7.875 6.375 Z " fill="#040405" transform="translate(284.875,345.625)"/>
<path d="M0 0 C3.40918784 2.12127244 5.78269305 4.12675063 7 8 C7.45208548 12.97294029 7.15736025 16.05329969 4 20 C0.21990143 22.36155412 -2.51866193 22.15950647 -6.80859375 21.5234375 C-10.20608987 20.71191436 -11.80931167 19.73836042 -14 17 C-15.52087057 12.26640284 -15.51392079 9.04687569 -13.3125 4.5625 C-9.20306031 0.00879656 -6.16113991 -0.64854104 0 0 Z M-11 6 C-12.19413777 10.60595996 -12.42809108 13.83755815 -10 18 C-7.04951123 20.85213914 -6.28899863 21 -2 21 C-2 20.34 -2 19.68 -2 19 C-1.1028125 18.87625 -1.1028125 18.87625 -0.1875 18.75 C2.77060774 17.73579163 3.60171847 16.79656305 5 14 C4.8754052 10.44904821 4.75679626 7.98712556 2.5625 5.125 C-1.90803712 1.90621327 -7.22918379 1.67054435 -11 6 Z " fill="#040305" transform="translate(259,346)"/>
<path d="M0 0 C2.97 0.495 2.97 0.495 6 1 C5.34 1.391875 4.68 1.78375 4 2.1875 C1.70833333 3.85416667 1.70833333 3.85416667 1.75 6.6875 C1.8325 7.450625 1.915 8.21375 2 9 C4.34533951 9.76956136 4.34533951 9.76956136 7 10 C7.40089844 9.53464844 7.80179687 9.06929688 8.21484375 8.58984375 C10.94747745 6.15618529 13.66490533 6.26778926 17.25 5.875 C18.53390625 5.72804688 19.8178125 5.58109375 21.140625 5.4296875 C22.41421875 5.28789062 23.6878125 5.14609375 25 5 C27.33630172 4.6842534 29.66768005 4.34440994 32 4 C31.25 8.75 31.25 8.75 29 11 C26.875 10.625 26.875 10.625 25 10 C26.32 9.34 27.64 8.68 29 8 C29 7.34 29 6.68 29 6 C28.01 6 27.02 6 26 6 C25.67 6.99 25.34 7.98 25 9 C20.38 9 15.76 9 11 9 C11 9.66 11 10.32 11 11 C7.51131349 13.32579101 6.10281481 13.41865457 2 13 C-0.375 11.9375 -0.375 11.9375 -2 10 C-2.46913089 5.62144505 -2.46943529 3.70415293 0 0 Z " fill="#3964D7" transform="translate(255,264)"/>
<path d="M0 0 C-2.16982332 3.12454559 -3.79288687 4.89035187 -7.1875 6.6875 C-17.24226399 12.07013597 -24.18963791 24.0074604 -29 34 C-29.66 33.01 -30.32 32.02 -31 31 C-25.55079402 20.14286991 -14.12389185 -0.76345361 0 0 Z " fill="#4165DB" transform="translate(221,300)"/>
<path d="M0 0 C0.66 0.99 1.32 1.98 2 3 C1.15753141 5.97128705 0.22632258 8.65616426 -0.9375 11.5 C-1.25871826 12.30574463 -1.57993652 13.11148926 -1.91088867 13.94165039 C-4.60579953 20.48905733 -7.87084778 26.23661868 -12 32 C-12.66 32.99 -13.32 33.98 -14 35 C-15.32 35 -16.64 35 -18 35 C-16.67324911 31.30731894 -15.02809063 28.4523167 -12.6875 25.3125 C-7.88865848 18.59011449 -4.17767354 12.24371475 -3 4 C-1.4375 1.625 -1.4375 1.625 0 0 Z " fill="#3A5ED1" transform="translate(359,274)"/>
<path d="M0 0 C0 0.99 0 1.98 0 3 C-1.2065625 3.2784375 -1.2065625 3.2784375 -2.4375 3.5625 C-13.04441534 7.84248338 -21.48302431 17.21181732 -27 27 C-27.99 26.67 -28.98 26.34 -30 26 C-29.4474143 22.13190013 -27.74528626 20.66684951 -25 18 C-24.319375 16.948125 -23.63875 15.89625 -22.9375 14.8125 C-21 12 -21 12 -18 11 C-17.67 10.34 -17.34 9.68 -17 9 C-13.81771352 6.17130091 -10.95144313 3.6570568 -7 2 C-6.13375 1.62875 -5.2675 1.2575 -4.375 0.875 C-2 0 -2 0 0 0 Z " fill="#020202" transform="translate(237,194)"/>
<path d="M0 0 C0.66 0.99 1.32 1.98 2 3 C-20.98117155 20.20188285 -20.98117155 20.20188285 -33 19 C-33 18.34 -33 17.68 -33 17 C-32.38253906 16.82984375 -31.76507813 16.6596875 -31.12890625 16.484375 C-19.77313136 13.23492952 -8.50557075 8.50557075 0 0 Z " fill="#3868E1" transform="translate(326,324)"/>
<path d="M0 0 C0.66 0.33 1.32 0.66 2 1 C0.31249154 5.50002257 -1.82364184 9.72379627 -4 14 C-6.97428478 19.85562316 -9.62912403 25.87523707 -12 32 C-12.66 31.67 -13.32 31.34 -14 31 C-12.76936859 19.92431735 -7.03938484 8.64644697 0 0 Z " fill="#3E66D4" transform="translate(164,179)"/>
<path d="M0 0 C0.66 0.66 1.32 1.32 2 2 C1.79296875 4.79296875 1.79296875 4.79296875 1.1875 8.1875 C0.98640625 9.3528125 0.7853125 10.518125 0.578125 11.71875 C0.38734375 12.8015625 0.1965625 13.884375 0 15 C-0.19526751 16.39476792 -0.38489906 17.79037264 -0.5625 19.1875 C-1 22 -1 22 -2 24 C-2.05938183 27.48497131 -2.02137511 30.95522516 -1.9609375 34.43945312 C-1.91212375 39.08082755 -2.22377324 43.42147496 -3 48 C-3.33 48 -3.66 48 -4 48 C-4.82555811 14.49821699 -4.82555811 14.49821699 0 0 Z " fill="#365CCD" transform="translate(149,210)"/>
<path d="M0 0 C-0.33 0.99 -0.66 1.98 -1 3 C-4.5625 4.1875 -4.5625 4.1875 -8 5 C-8 5.66 -8 6.32 -8 7 C-14.625 10 -14.625 10 -18 10 C-18 10.66 -18 11.32 -18 12 C-18.99 12.495 -18.99 12.495 -20 13 C-20.70811227 14.61854232 -21.40949428 16.24048582 -22.0703125 17.87890625 C-23.76032896 21.7347001 -25.90697685 25.35168693 -28 29 C-28.66 29 -29.32 29 -30 29 C-26.86920182 17.38309096 -21.46238237 10.05469204 -11 4 C-3.20118343 0 -3.20118343 0 0 0 Z " fill="#355BBF" transform="translate(245,201)"/>
<path d="M0 0 C-3.21639654 1.74565111 -5.32013404 2.204437 -9 2 C-9 1.34 -9 0.68 -9 0 C-9.99 0.33 -10.98 0.66 -12 1 C-16.47032876 1.38457422 -20.95459901 1.51338422 -25.4375 1.6875 C-27.29858398 1.77741211 -27.29858398 1.77741211 -29.19726562 1.86914062 C-30.38900391 1.91619141 -31.58074219 1.96324219 -32.80859375 2.01171875 C-34.44526001 2.08072388 -34.44526001 2.08072388 -36.11499023 2.15112305 C-39.0013811 1.99992766 -40.56988197 1.5054447 -43 0 C-28.1364698 -1.95160068 -14.84759107 -2.24417031 0 0 Z " fill="#3457B9" transform="translate(277,133)"/>
<path d="M0 0 C5.93719058 2.09547903 10.30715634 4.90035876 14 10 C14.99 10.33 15.98 10.66 17 11 C18.375 13.0625 18.375 13.0625 20 16 C21.3300991 18.04907158 22.66671812 20.09349001 24.01171875 22.1328125 C25 24 25 24 25 27 C22 26 22 26 20.82421875 24.1796875 C20.44910156 23.41914063 20.07398438 22.65859375 19.6875 21.875 C15.27326044 13.63248189 9.93227766 8.95003911 2.1953125 3.69921875 C1.47085937 3.13847656 0.74640625 2.57773438 0 2 C0 1.34 0 0.68 0 0 Z " fill="#020202" transform="translate(278,196)"/>
<path d="M0 0 C0.62261719 0.18691406 1.24523437 0.37382812 1.88671875 0.56640625 C1.26925781 0.96730469 0.65179688 1.36820313 0.015625 1.78125 C-10.48404421 8.82897317 -17.75654152 16.63117873 -24.11328125 27.56640625 C-24.77328125 26.24640625 -25.43328125 24.92640625 -26.11328125 23.56640625 C-25.45328125 23.56640625 -24.79328125 23.56640625 -24.11328125 23.56640625 C-23.86964844 22.84324219 -23.62601563 22.12007812 -23.375 21.375 C-19.95467979 13.76134603 -12.56341388 7.69949609 -6.11328125 2.56640625 C-5.03046875 1.60734375 -5.03046875 1.60734375 -3.92578125 0.62890625 C-2.11328125 -0.43359375 -2.11328125 -0.43359375 0 0 Z " fill="#101010" transform="translate(234.11328125,197.43359375)"/>
<path d="M0 0 C0.66 0 1.32 0 2 0 C3.9453125 2.30078125 3.9453125 2.30078125 6.125 5.3125 C6.84945313 6.29863281 7.57390625 7.28476563 8.3203125 8.30078125 C10 11 10 11 10 14 C10.66 14 11.32 14 12 14 C12.52992692 15.45505358 13.0486789 16.91418127 13.5625 18.375 C13.85253906 19.18710938 14.14257812 19.99921875 14.44140625 20.8359375 C15 23 15 23 14 25 C11.79904836 22.94648807 10.26557451 20.97709067 8.80859375 18.34765625 C8.42123047 17.65349609 8.03386719 16.95933594 7.63476562 16.24414062 C7.23966797 15.52419922 6.84457031 14.80425781 6.4375 14.0625 C5.83905273 12.98838867 5.83905273 12.98838867 5.22851562 11.89257812 C0 2.47426701 0 2.47426701 0 0 Z " fill="#396CE3" transform="translate(316,191)"/>
<path d="M0 0 C1.7851046 2.2101295 3.10954328 4.23468916 4.31640625 6.8203125 C6.08114218 10.15324764 8.04614929 12.51154616 10.625 15.25 C14.91666667 19.83333333 14.91666667 19.83333333 16 22 C11.10233339 21.5802 9.13709245 19.68608362 6 16 C2.51375099 11.20766347 0.32347257 6.77515305 -1 1 C-0.67 0.67 -0.34 0.34 0 0 Z " fill="#4965D5" transform="translate(216,254)"/>
<path d="M0 0 C-0.33 0.99 -0.66 1.98 -1 3 C-1.66 3 -2.32 3 -3 3 C-3 3.66 -3 4.32 -3 5 C-4.50390625 6.4453125 -4.50390625 6.4453125 -6.5625 8.125 C-10.82798469 11.73659577 -14.43310564 15.70858022 -18 20 C-18.66 19.67 -19.32 19.34 -20 19 C-17.10591234 12.53946088 -7.82839817 0 0 0 Z " fill="#2D5CCC" transform="translate(188,156)"/>
<path d="M0 0 C-2.70706206 3.89816937 -5.2349366 5.87695618 -9.3359375 8.0234375 C-11.21430483 9.02660242 -11.21430483 9.02660242 -13.125 11.1875 C-15.37102919 13.35866155 -16.94218944 13.66024327 -20 14 C-8.28900376 -0.71381579 -8.28900376 -0.71381579 0 0 Z " fill="#3664DB" transform="translate(221,300)"/>
<path d="M0 0 C2 3 2 3 1.79296875 5.0234375 C1.59316406 5.79945313 1.39335937 6.57546875 1.1875 7.375 C-0.05118543 12.69037164 -0.35954669 17.86759964 -0.55859375 23.3125 C-0.70425781 24.199375 -0.84992188 25.08625 -1 26 C-1.99 26.66 -2.98 27.32 -4 28 C-4.47170447 18.61832228 -3.31334751 10.07359619 -1 1 C-0.67 0.67 -0.34 0.34 0 0 Z " fill="#3563CA" transform="translate(179,218)"/>
<path d="M0 0 C0.33 0 0.66 0 1 0 C2.01629322 4.21964946 2.16598183 8.22873996 2.1875 12.5625 C2.20167969 13.86316406 2.21585937 15.16382813 2.23046875 16.50390625 C2.02063232 19.68701826 1.69692677 21.36406237 0 24 C-1.57887856 22.42112144 -1.12978098 20.819407 -1.1328125 18.6328125 C-1.13410156 17.74722656 -1.13539063 16.86164063 -1.13671875 15.94921875 C-1.13285156 15.01722656 -1.12898438 14.08523437 -1.125 13.125 C-1.12886719 12.20074219 -1.13273437 11.27648437 -1.13671875 10.32421875 C-1.13542969 9.43605469 -1.13414062 8.54789063 -1.1328125 7.6328125 C-1.13168457 6.81699707 -1.13055664 6.00118164 -1.12939453 5.16064453 C-1 3 -1 3 0 0 Z " fill="#405CBC" transform="translate(296,230)"/>
<path d="M0 0 C4.39970265 4.0114936 8.42485876 8.58833101 11 14 C10.6640625 16.27734375 10.6640625 16.27734375 10 18 C7.79514157 15.3226719 5.77509468 12.65602717 3.875 9.75 C2.28622262 6.94016618 2.28622262 6.94016618 0 6 C-0.6875 3.5 -0.6875 3.5 -1 1 C-0.67 0.67 -0.34 0.34 0 0 Z " fill="#3B5FCB" transform="translate(340,171)"/>
<path d="M0 0 C3.81936528 1.55603771 6.26044438 3.95604931 9 7 C9 7.66 9 8.32 9 9 C9.61875 9.268125 10.2375 9.53625 10.875 9.8125 C13 11 13 11 15 14 C12.796875 14.296875 12.796875 14.296875 10 14 C7.578125 11.953125 7.578125 11.953125 5.25 9.25 C4.47140625 8.36828125 3.6928125 7.4865625 2.890625 6.578125 C1.17072918 4.23281252 0.39714417 2.83296176 0 0 Z " fill="#3A58BF" transform="translate(170,311)"/>
<path d="M0 0 C2.82931736 2.82931736 3.85431851 6.26414386 5.25 9.9375 C5.54390625 10.66646484 5.8378125 11.39542969 6.140625 12.14648438 C6.953125 14.27734375 6.953125 14.27734375 8 18 C7.34 18.99 6.68 19.98 6 21 C5.49596232 19.70990357 4.99690074 18.41786211 4.5 17.125 C4.2215625 16.40570313 3.943125 15.68640625 3.65625 14.9453125 C3 13 3 13 3 11 C2.34 11 1.68 11 1 11 C0.63890458 9.35567294 0.28629924 7.7094792 -0.0625 6.0625 C-0.25972656 5.14597656 -0.45695312 4.22945312 -0.66015625 3.28515625 C-0.77230469 2.53105469 -0.88445312 1.77695313 -1 1 C-0.67 0.67 -0.34 0.34 0 0 Z " fill="#395CCF" transform="translate(353,190)"/>
<path d="M0 0 C3.93743833 -0.05797565 7.87476719 -0.09358789 11.8125 -0.125 C12.93205078 -0.14175781 14.05160156 -0.15851563 15.20507812 -0.17578125 C16.27822266 -0.18222656 17.35136719 -0.18867188 18.45703125 -0.1953125 C19.9416687 -0.21102295 19.9416687 -0.21102295 21.45629883 -0.22705078 C24 0 24 0 27 2 C23.62554272 2.19825948 20.25043278 2.38167324 16.875 2.5625 C15.44800781 2.64661133 15.44800781 2.64661133 13.9921875 2.73242188 C9.16209924 2.98398897 4.75809383 3.08138496 0 2 C0 1.34 0 0.68 0 0 Z " fill="#4562D3" transform="translate(242,162)"/>
<path d="M0 0 C0.66 0.66 1.32 1.32 2 2 C0.8966898 3.58393026 -0.20768544 5.16711868 -1.3125 6.75 C-1.92738281 7.63171875 -2.54226562 8.5134375 -3.17578125 9.421875 C-4.74833065 11.64432169 -6.35368512 13.83192994 -8 16 C-8.93345229 12.94457187 -9.22776987 11.50446214 -7.890625 8.54296875 C-7.34921875 7.76566406 -6.8078125 6.98835937 -6.25 6.1875 C-5.45335937 5.00220703 -5.45335937 5.00220703 -4.640625 3.79296875 C-4.09921875 3.20128906 -3.5578125 2.60960937 -3 2 C-2.01 2 -1.02 2 0 2 C0 1.34 0 0.68 0 0 Z " fill="#355AD0" transform="translate(193,193)"/>
<path d="M0 0 C1.32 0 2.64 0 4 0 C4 0.66 4 1.32 4 2 C4.70125 2.226875 5.4025 2.45375 6.125 2.6875 C9.69343613 4.31656867 12.06514511 6.40640731 15 9 C14.01 9.66 13.02 10.32 12 11 C10.37327315 9.87749844 8.74867418 8.75191267 7.125 7.625 C5.76761719 6.68527344 5.76761719 6.68527344 4.3828125 5.7265625 C2 4 2 4 0 2 C0 1.34 0 0.68 0 0 Z " fill="#3B66DE" transform="translate(291,171)"/>
<path d="M0 0 C6.55715404 3.1792262 11.77112236 9.54224473 15 16 C15 16.66 15 17.32 15 18 C10.95868733 16.65289578 10.09711566 14.61571666 8 11 C8 10.01 8 9.02 8 8 C7.01 8 6.02 8 5 8 C4.67 6.68 4.34 5.36 4 4 C2.68 3.67 1.36 3.34 0 3 C0 2.01 0 1.02 0 0 Z " fill="#3561C8" transform="translate(279,207)"/>
<path d="M0 0 C3.06273831 -0.05410136 6.12451452 -0.09372225 9.1875 -0.125 C10.48397461 -0.15013672 10.48397461 -0.15013672 11.80664062 -0.17578125 C16.32208103 -0.21038233 19.90081483 -0.15567916 24 2 C23.67 2.66 23.34 3.32 23 4 C19.91535226 3.72128836 16.83266721 3.4247659 13.75 3.125 C12.44095703 3.00705078 12.44095703 3.00705078 11.10546875 2.88671875 C10.26113281 2.80292969 9.41679687 2.71914062 8.546875 2.6328125 C7.77182617 2.55949707 6.99677734 2.48618164 6.19824219 2.41064453 C3.84158115 1.97040643 2.08343123 1.16622346 0 0 Z " fill="#365ABA" transform="translate(246,200)"/>
<path d="M0 0 C0.51046875 0.37898437 1.0209375 0.75796875 1.546875 1.1484375 C-0.103125 1.4784375 -1.753125 1.8084375 -3.453125 2.1484375 C-3.783125 3.1384375 -4.113125 4.1284375 -4.453125 5.1484375 C-6.07636586 5.37006079 -7.701846 5.57533553 -9.328125 5.7734375 C-10.68550781 5.94746094 -10.68550781 5.94746094 -12.0703125 6.125 C-12.85664063 6.13273438 -13.64296875 6.14046875 -14.453125 6.1484375 C-15.113125 5.4884375 -15.773125 4.8284375 -16.453125 4.1484375 C-14.20908798 3.25442275 -11.96022367 2.38328461 -9.703125 1.5234375 C-9.06890625 1.26820313 -8.4346875 1.01296875 -7.78125 0.75 C-3.00217062 -1.04215477 -3.00217062 -1.04215477 0 0 Z " fill="#3E62D3" transform="translate(225.453125,136.8515625)"/>
<path d="M0 0 C2.44786227 2.44786227 3.30080644 4.74317342 4.625 7.9375 C5.07101563 8.99839844 5.51703125 10.05929687 5.9765625 11.15234375 C7 14 7 14 7 17 C6.01 17 5.02 17 4 17 C3.34865075 15.43979133 2.70417036 13.87671421 2.0625 12.3125 C1.70285156 11.44238281 1.34320313 10.57226562 0.97265625 9.67578125 C0.03527566 7.09704347 -0.63416357 4.7183036 -1 2 C-0.67 1.34 -0.34 0.68 0 0 Z " fill="#3E5DCE" transform="translate(151,274)"/>
<path d="M0 0 C-12.45849802 8 -12.45849802 8 -18 8 C-17 5 -17 5 -14.6015625 3.6484375 C-13.61929688 3.22820312 -12.63703125 2.80796875 -11.625 2.375 C-10.15933594 1.73691406 -10.15933594 1.73691406 -8.6640625 1.0859375 C-3.30079156 -1.10026385 -3.30079156 -1.10026385 0 0 Z " fill="#3B63D8" transform="translate(232,167)"/>
<path d="M0 0 C1.3293457 0.00483398 1.3293457 0.00483398 2.68554688 0.00976562 C4.05356445 0.02233398 4.05356445 0.02233398 5.44921875 0.03515625 C6.38056641 0.03966797 7.31191406 0.04417969 8.27148438 0.04882812 C10.55996248 0.06056391 12.84830683 0.07698262 15.13671875 0.09765625 C15.13671875 0.42765625 15.13671875 0.75765625 15.13671875 1.09765625 C7.11321571 2.28162508 -0.72783439 3.38311053 -8.86328125 3.09765625 C-9.19328125 2.43765625 -9.52328125 1.77765625 -9.86328125 1.09765625 C-6.51236354 0.34402573 -3.43218313 -0.02214312 0 0 Z " fill="#3E6BD9" transform="translate(248.86328125,288.90234375)"/>
<path d="M0 0 C0.99 0.33 1.98 0.66 3 1 C2 4 2 4 0 5.1875 C-4.03804554 6.28113733 -7.84315708 6.16301345 -12 6 C-12 5.34 -12 4.68 -12 4 C-11.30132812 3.79503906 -10.60265625 3.59007812 -9.8828125 3.37890625 C-8.97273438 3.10949219 -8.06265625 2.84007812 -7.125 2.5625 C-6.22007812 2.29566406 -5.31515625 2.02882813 -4.3828125 1.75390625 C-2.01724619 1.07386174 -2.01724619 1.07386174 0 0 Z " fill="#445FDA" transform="translate(305,337)"/>
<path d="M0 0 C0.66 0.33 1.32 0.66 2 1 C1.91613257 3.85149263 1.45080595 5.53673459 -0.5546875 7.59765625 C-2.34072883 9.10578659 -4.16372281 10.5538787 -6 12 C-6.66 12.66 -7.32 13.32 -8 14 C-8.33 13.01 -8.66 12.02 -9 11 C-8.27683594 10.31164062 -8.27683594 10.31164062 -7.5390625 9.609375 C-6.59160156 8.68898438 -6.59160156 8.68898438 -5.625 7.75 C-4.99851562 7.14671875 -4.37203125 6.5434375 -3.7265625 5.921875 C-2.02689839 4.0299412 -1.01540134 2.31798691 0 0 Z " fill="#3A5FDA" transform="translate(339,309)"/>
<path d="M0 0 C0.99 0.33 1.98 0.66 3 1 C1.67771571 6.68582243 -0.40255302 8.7161093 -5 12 C-5.99 12.33 -6.98 12.66 -8 13 C-8 9 -8 9 -7 8 C-5.33382885 7.95936168 -3.66611905 7.957279 -2 8 C-2 7.01 -2 6.02 -2 5 C-1.34 5 -0.68 5 0 5 C0 3.35 0 1.7 0 0 Z " fill="#375EBE" transform="translate(293,254)"/>
<path d="M0 0 C-2.75307198 2.75307198 -6.0568308 3.74908236 -9.625 5.125 C-10.68460938 5.54072266 -10.68460938 5.54072266 -11.765625 5.96484375 C-13.50859377 6.64789908 -15.25406409 7.32456494 -17 8 C-17.66 7.34 -18.32 6.68 -19 6 C-16.96539231 4.98571486 -14.92195394 3.98913211 -12.875 3 C-11.16957031 2.1646875 -11.16957031 2.1646875 -9.4296875 1.3125 C-5.98680467 -0.00504969 -3.64330238 -0.26577282 0 0 Z " fill="#3F61D4" transform="translate(239,292)"/>
<path d="M0 0 C0.33 0 0.66 0 1 0 C1.13277344 0.95261719 1.26554688 1.90523437 1.40234375 2.88671875 C1.57894531 4.14097656 1.75554687 5.39523438 1.9375 6.6875 C2.11152344 7.92886719 2.28554687 9.17023438 2.46484375 10.44921875 C2.89822897 13.32474548 3.39649282 16.15644813 4 19 C3.01 19.33 2.02 19.66 1 20 C-2.19132453 14.01626651 -1.71204385 6.42016445 0 0 Z " fill="#3B62D1" transform="translate(177,245)"/>
<path d="M0 0 C0.66 0 1.32 0 2 0 C0.95174587 3.2206229 0.10998381 3.94370565 -2.96875 5.51953125 C-4.1340625 5.94621094 -5.299375 6.37289063 -6.5 6.8125 C-8.24796875 7.47185547 -8.24796875 7.47185547 -10.03125 8.14453125 C-13 9 -13 9 -15 8 C-12.5090102 5.03453596 -10.00783335 4.09233466 -6.375 2.875 C-2.91229333 1.91020907 -2.91229333 1.91020907 0 0 Z " fill="#3C64D7" transform="translate(277,276)"/>
<path d="M0 0 C0.89074219 0.28101563 1.78148437 0.56203125 2.69921875 0.8515625 C5.23860724 1.70466947 7.72898716 2.62214443 10.1875 3.6875 C8.5390625 4.796875 8.5390625 4.796875 6.1875 5.6875 C3.4609375 5.078125 3.4609375 5.078125 0.5625 3.9375 C-0.39914063 3.57140625 -1.36078125 3.2053125 -2.3515625 2.828125 C-4.8125 1.6875 -4.8125 1.6875 -6.8125 -0.3125 C-4.06163109 -1.68793445 -2.89329274 -0.91526952 0 0 Z " fill="#3864DB" transform="translate(238.8125,278.3125)"/>
<path d="M0 0 C3.26806636 3.26806636 3.49729659 7.51384933 4 12 C3.88676113 15.0846268 3.49305402 17.94306507 3 21 C2.67 21 2.34 21 2 21 C1.80083984 19.67935547 1.80083984 19.67935547 1.59765625 18.33203125 C1.42105469 17.17058594 1.24445313 16.00914062 1.0625 14.8125 C0.88847656 13.66394531 0.71445312 12.51539063 0.53515625 11.33203125 C0.20843844 9.29779553 -0.16771925 7.26974416 -0.62890625 5.26171875 C-1 3 -1 3 0 0 Z " fill="#3A63D2" transform="translate(331,217)"/>
<path d="M0 0 C5.27112904 2.79692561 9.59398317 5.98235547 14 10 C13.34 10.66 12.68 11.32 12 12 C9.99092002 10.57391198 7.99330486 9.13533968 6 7.6875 C5.42765625 7.28337891 4.8553125 6.87925781 4.265625 6.46289062 C2.78791356 5.38099475 1.38745891 4.19544451 0 3 C0 2.01 0 1.02 0 0 Z " fill="#3B63D0" transform="translate(315,149)"/>
<path d="M0 0 C1.07765625 0.29648437 2.1553125 0.59296875 3.265625 0.8984375 C4.08546875 1.13820313 4.9053125 1.37796875 5.75 1.625 C5.42 2.285 5.09 2.945 4.75 3.625 C-5.80808656 2.84595672 -5.80808656 2.84595672 -10.25 0.625 C-6.5169539 -1.89390004 -4.20376097 -1.1880194 0 0 Z " fill="#3F62D3" transform="translate(277.25,290.375)"/>
<path d="M0 0 C0.66 0 1.32 0 2 0 C2 3.63 2 7.26 2 11 C1.67 11 1.34 11 1 11 C0.67 14.96 0.34 18.92 0 23 C-0.33 23 -0.66 23 -1 23 C-1.02887512 19.35418313 -1.04675585 15.70839537 -1.0625 12.0625 C-1.07087891 11.02158203 -1.07925781 9.98066406 -1.08789062 8.90820312 C-1.09272461 7.42416992 -1.09272461 7.42416992 -1.09765625 5.91015625 C-1.10289307 4.99371338 -1.10812988 4.07727051 -1.11352539 3.13305664 C-1 1 -1 1 0 0 Z " fill="#4467DD" transform="translate(364,228)"/>
<path d="M0 0 C3.1875 1.5625 3.1875 1.5625 5 3 C4.67 3.66 4.34 4.32 4 5 C1.91526053 4.54810561 -0.16775036 4.08823175 -2.25 3.625 C-3.41015625 3.36976563 -4.5703125 3.11453125 -5.765625 2.8515625 C-8.46052401 2.14203595 -10.59525832 1.36903611 -13 0 C-9.09767201 -1.951164 -4.1876089 -0.70598017 0 0 Z " fill="#3F64DC" transform="translate(282,165)"/>
<path d="M0 0 C5.14222494 2.9185601 7.89231342 5.47485477 10.6875 10.6875 C11.12449219 11.49574219 11.56148438 12.30398437 12.01171875 13.13671875 C12.33785156 13.75160156 12.66398437 14.36648437 13 15 C9.43669838 13.54014515 7.67815284 11.67896037 5.375 8.625 C4.78460938 7.85414063 4.19421875 7.08328125 3.5859375 6.2890625 C2.16944538 4.24456894 1.03962447 2.25423524 0 0 Z " fill="#121212" transform="translate(286,204)"/>
<path d="M0 0 C0.99 0 1.98 0 3 0 C2.27991594 4.60853797 0.68704061 8.67237409 -1 13 C-1.66 12.67 -2.32 12.34 -3 12 C-2.69106068 10.3743193 -2.3777305 8.74947252 -2.0625 7.125 C-1.88847656 6.22007812 -1.71445313 5.31515625 -1.53515625 4.3828125 C-1 2 -1 2 0 0 Z " fill="#3960D4" transform="translate(153,198)"/>
<path d="M0 0 C-0.75 4.75 -0.75 4.75 -3 7 C-5.125 6.625 -5.125 6.625 -7 6 C-5.68 5.34 -4.36 4.68 -3 4 C-3 3.34 -3 2.68 -3 2 C-3.99 2 -4.98 2 -6 2 C-6 2.66 -6 3.32 -6 4 C-7.65 3.67 -9.3 3.34 -11 3 C-7.4536218 1.02978989 -4.07768576 0 0 0 Z " fill="#305ABA" transform="translate(287,268)"/>
<path d="M0 0 C0.66 0.33 1.32 0.66 2 1 C1.40895235 5.84659077 0.02055843 9.60748167 -2 14 C-2.66 13.01 -3.32 12.02 -4 11 C-3.3203125 8.30078125 -3.3203125 8.30078125 -2.125 5.3125 C-1.73570312 4.31863281 -1.34640625 3.32476562 -0.9453125 2.30078125 C-0.63335937 1.54152344 -0.32140625 0.78226563 0 0 Z " fill="#436BDD" transform="translate(183,206)"/>
<path d="M0 0 C0.66 0 1.32 0 2 0 C3.98 3.63 5.96 7.26 8 11 C7.34 11.66 6.68 12.32 6 13 C4.98868775 11.59138651 3.99133233 10.17274547 3 8.75 C2.1646875 7.56664062 2.1646875 7.56664062 1.3125 6.359375 C0 4 0 4 0 0 Z " fill="#4065DB" transform="translate(160,296)"/>
<path d="M0 0 C0.8353125 0.37125 0.8353125 0.37125 1.6875 0.75 C-0.82277705 3.3499298 -3.2988684 5.74091227 -6.3125 7.75 C-6.9725 7.75 -7.6325 7.75 -8.3125 7.75 C-7.98035849 4.65001254 -7.2579988 3.6954988 -5 1.4375 C-2.3125 -0.25 -2.3125 -0.25 0 0 Z " fill="#3766D8" transform="translate(211.3125,176.25)"/>
<path d="M0 0 C0.66 0.66 1.32 1.32 2 2 C1.625 4.125 1.625 4.125 1 6 C0.34 6 -0.32 6 -1 6 C-1.33 7.65 -1.66 9.3 -2 11 C-2.66 11 -3.32 11 -4 11 C-4 11.66 -4 12.32 -4 13 C-4.66 13 -5.32 13 -6 13 C-5.51675181 7.84535266 -2.81389239 4.18449681 0 0 Z " fill="#3D5DD1" transform="translate(325,276)"/>
<path d="M0 0 C-0.33 0.99 -0.66 1.98 -1 3 C-1.66 3 -2.32 3 -3 3 C-3 3.66 -3 4.32 -3 5 C-4.75 6.7265625 -4.75 6.7265625 -7 8.625 C-7.7425 9.25664062 -8.485 9.88828125 -9.25 10.5390625 C-9.8275 11.02117187 -10.405 11.50328125 -11 12 C-11 8.26071501 -10.08040398 7.59097747 -7.625 4.875 C-6.99851563 4.17117187 -6.37203125 3.46734375 -5.7265625 2.7421875 C-3.76461964 0.7624895 -2.80497398 0 0 0 Z " fill="#3A64CD" transform="translate(188,156)"/>
<path d="M0 0 C0 3.44360632 -0.79591532 4.74795392 -2.5 7.6875 C-2.9640625 8.49574219 -3.428125 9.30398438 -3.90625 10.13671875 C-4.44765625 11.05904297 -4.44765625 11.05904297 -5 12 C-5.66 11.01 -6.32 10.02 -7 9 C-6.40844669 7.68176698 -5.80128537 6.37052949 -5.1875 5.0625 C-4.85105469 4.33160156 -4.51460937 3.60070312 -4.16796875 2.84765625 C-3 1 -3 1 0 0 Z " fill="#375BCC" transform="translate(197,322)"/>
<path d="M0 0 C0 0.99 0 1.98 0 3 C-4.33273814 3.92844389 -7.66726186 3.92844389 -12 3 C-12 2.34 -12 1.68 -12 1 C-7.915021 0.45533613 -4.1274515 0 0 0 Z " fill="#3F61D0" transform="translate(281,265)"/>
<path d="M0 0 C1.31534494 3.65857532 0.65468309 6.08026481 -0.4375 9.75 C-0.86869141 11.22726562 -0.86869141 11.22726562 -1.30859375 12.734375 C-1.53675781 13.48203125 -1.76492188 14.2296875 -2 15 C-3.49693208 12.63300992 -4.0958646 11.51538217 -3.57421875 8.7109375 C-3.28160156 7.94007813 -2.98898437 7.16921875 -2.6875 6.375 C-2.40261719 5.59898437 -2.11773437 4.82296875 -1.82421875 4.0234375 C-1 2 -1 2 0 0 Z " fill="#375DC8" transform="translate(334,252)"/>
<path d="M0 0 C0.66 0.33 1.32 0.66 2 1 C2 1.66 2 2.32 2 3 C0.56988027 3.86646667 -0.86940619 4.71781829 -2.3125 5.5625 C-3.51326172 6.27599609 -3.51326172 6.27599609 -4.73828125 7.00390625 C-7 8 -7 8 -10 7 C-6.7 4.69 -3.4 2.38 0 0 Z " fill="#3F5ACD" transform="translate(198,147)"/>
<path d="M0 0 C0.99 0 1.98 0 3 0 C1.4411666 3.82622743 -0.95433582 6.25147379 -4 9 C-4.99 9.33 -5.98 9.66 -7 10 C-7 9.34 -7 8.68 -7 8 C-6.34 8 -5.68 8 -5 8 C-4.731875 7.4225 -4.46375 6.845 -4.1875 6.25 C-2.9611378 3.92636635 -1.75156566 1.96175354 0 0 Z " fill="#395ED6" transform="translate(316,290)"/>
<path d="M0 0 C3.3 1.65 6.6 3.3 10 5 C9.67 5.66 9.34 6.32 9 7 C5.04179141 6.43454163 2.3340947 5.19097652 -1 3 C-0.67 2.01 -0.34 1.02 0 0 Z " fill="#385FD4" transform="translate(305,143)"/>
<path d="M0 0 C-2.11693724 2.43055758 -3.53521326 3.84507109 -6.625 4.875 C-7.40875 4.91625 -8.1925 4.9575 -9 5 C-9.66 4.34 -10.32 3.68 -11 3 C-9.73581754 2.30034557 -8.46334598 1.61565237 -7.1875 0.9375 C-6.47980469 0.55464844 -5.77210938 0.17179688 -5.04296875 -0.22265625 C-3 -1 -3 -1 0 0 Z " fill="#3061D3" transform="translate(210,143)"/>
<path d="M0 0 C0.66 0.99 1.32 1.98 2 3 C1.3203125 5.48046875 1.3203125 5.48046875 0.125 8.1875 C-0.26429688 9.08855469 -0.65359375 9.98960937 -1.0546875 10.91796875 C-1.36664063 11.60503906 -1.67859375 12.29210937 -2 13 C-2.33 13 -2.66 13 -3 13 C-3.4726477 4.80743982 -3.4726477 4.80743982 -1.5 1.4375 C-0.7575 0.7259375 -0.7575 0.7259375 0 0 Z " fill="#3A64D4" transform="translate(359,274)"/>
<path d="M0 0 C0.66 0 1.32 0 2 0 C3.2890625 1.4609375 3.2890625 1.4609375 4.625 3.375 C5.29402344 4.31472656 5.29402344 4.31472656 5.9765625 5.2734375 C7 7 7 7 7 9 C5.1875 8.8125 5.1875 8.8125 3 8 C0.85802506 5.09303401 0 3.64478912 0 0 Z " fill="#4260CE" transform="translate(316,191)"/>
<path d="M0 0 C0.33 0 0.66 0 1 0 C1.08082094 1.95766281 1.13910778 3.91626728 1.1875 5.875 C1.23970703 7.51082031 1.23970703 7.51082031 1.29296875 9.1796875 C1.19628906 10.11039063 1.09960938 11.04109375 1 12 C0.01 12.66 -0.98 13.32 -2 14 C-2.05389087 12.04196493 -2.09274217 10.08351091 -2.125 8.125 C-2.14820313 7.03445312 -2.17140625 5.94390625 -2.1953125 4.8203125 C-2 2 -2 2 0 0 Z " fill="#384DC8" transform="translate(177,232)"/>
<path d="M0 0 C3.53586014 3.17320782 5.58578031 5.16743695 6 10 C5.01 10.495 5.01 10.495 4 11 C0 4.5 0 4.5 0 0 Z " fill="#4263D2" transform="translate(345,178)"/>
<path d="M0 0 C1.98 0 3.96 0 6 0 C5.67 0.99 5.34 1.98 5 3 C1.08609399 4.47694566 -1.99434629 5.60226148 -6 4 C-4.35 3.67 -2.7 3.34 -1 3 C-0.67 2.01 -0.34 1.02 0 0 Z " fill="#4265E4" transform="translate(233,164)"/>
<path d="M0 0 C2.64 0 5.28 0 8 0 C4.30827405 3.53790403 0.90609405 3.59115883 -4 4 C-3.67 3.34 -3.34 2.68 -3 2 C-2.01 2 -1.02 2 0 2 C0 1.34 0 0.68 0 0 Z " fill="#3A62CA" transform="translate(215,344)"/>
<path d="M0 0 C2.50298434 2.93828597 3.46930939 5.17902761 4 9 C0.60085025 7.86695008 -0.05254451 6.87481525 -2 4 C-1.34 2.68 -0.68 1.36 0 0 Z " fill="#3C62CB" transform="translate(185,276)"/>
<path d="M0 0 C2.18975773 3.28463659 2.99806563 6.20696275 4 10 C2.68 9.67 1.36 9.34 0 9 C-1.125 2.25 -1.125 2.25 0 0 Z " fill="#355CCE" transform="translate(181,266)"/>
<path d="M0 0 C0.99 0.99 1.98 1.98 3 3 C2.25 4.9375 2.25 4.9375 1 7 C-1.125 7.75 -1.125 7.75 -3 8 C-1.125 2.25 -1.125 2.25 0 0 Z " fill="#4764DB" transform="translate(157,190)"/>
<path d="M0 0 C2.97 0.99 5.94 1.98 9 3 C9 3.66 9 4.32 9 5 C5.97580475 4.41196203 2.98241547 3.77321882 0 3 C0 2.01 0 1.02 0 0 Z " fill="#345FC7" transform="translate(279,134)"/>
<path d="M0 0 C0.33 0.99 0.66 1.98 1 3 C-1.31 4.32 -3.62 5.64 -6 7 C-6.33 6.01 -6.66 5.02 -7 4 C-4.69 2.68 -2.38 1.36 0 0 Z " fill="#3458CE" transform="translate(314,333)"/>
<path d="M0 0 C0.33 0.99 0.66 1.98 1 3 C0.0479279 4.00596297 -0.91187346 5.00461563 -1.875 6 C-2.40867188 6.556875 -2.94234375 7.11375 -3.4921875 7.6875 C-5 9 -5 9 -7 9 C-5.44499019 5.18315774 -2.96404505 2.80804268 0 0 Z " fill="#3C61CB" transform="translate(201,183)"/>
<path d="M0 0 C-1 3 -1 3 -4 5 C-5.32 5 -6.64 5 -8 5 C-7 2 -7 2 -5.125 0.8125 C-3 0 -3 0 0 0 Z " fill="#415EC8" transform="translate(222,170)"/>
<path d="M0 0 C3.36720387 1.39332574 4.9859524 2.9789286 7 6 C2.25 5.25 2.25 5.25 0 3 C0 2.01 0 1.02 0 0 Z " fill="#426ADA" transform="translate(225,270)"/>
<path d="M0 0 C2.74277578 3.19990508 4.6302836 6.00499382 6 10 C3 9 3 9 1.3125 6.6875 C0 4 0 4 0 0 Z " fill="#3B5EBA" transform="translate(288,215)"/>
<path d="M0 0 C-0.33 0.99 -0.66 1.98 -1 3 C-4.5625 4.1875 -4.5625 4.1875 -8 5 C-8.33 4.34 -8.66 3.68 -9 3 C-2.25 0 -2.25 0 0 0 Z " fill="#305EB4" transform="translate(245,201)"/>
<path d="M0 0 C3.23356015 1.21258505 4.00856305 2.01284458 6 5 C5.01 5.33 4.02 5.66 3 6 C1.35 4.35 -0.3 2.7 -2 1 C-1.34 0.67 -0.68 0.34 0 0 Z " fill="#3962CD" transform="translate(300,176)"/>
<path d="M0 0 C0.99 0 1.98 0 3 0 C5 3 5 3 5 6 C5.66 6.33 6.32 6.66 7 7 C5.35 6.67 3.7 6.34 2 6 C2 4.68 2 3.36 2 2 C1.34 2 0.68 2 0 2 C0 1.34 0 0.68 0 0 Z " fill="#3358D4" transform="translate(262,263)"/>
<path d="M0 0 C0.66 0 1.32 0 2 0 C2.66 2.64 3.32 5.28 4 8 C3.01 8.33 2.02 8.66 1 9 C0.67 6.03 0.34 3.06 0 0 Z " fill="#345CC1" transform="translate(177,256)"/>
<path d="M0 0 C0.33 0 0.66 0 1 0 C1.2226746 1.43534841 1.42761906 2.87345525 1.625 4.3125 C1.74101562 5.11300781 1.85703125 5.91351563 1.9765625 6.73828125 C2 9 2 9 0 12 C-0.19477739 10.37585622 -0.38059458 8.75063577 -0.5625 7.125 C-0.66691406 6.22007812 -0.77132812 5.31515625 -0.87890625 4.3828125 C-1 2 -1 2 0 0 Z " fill="#3A54C8" transform="translate(147,256)"/>
<path d="M0 0 C0.66 0 1.32 0 2 0 C1.25 5.75 1.25 5.75 -1 8 C-1.625 5.6875 -1.625 5.6875 -2 3 C-1.34 2.01 -0.68 1.02 0 0 Z " fill="#3C5ED9" transform="translate(186,201)"/>
<path d="M0 0 C2.97 0.33 5.94 0.66 9 1 C9 1.33 9 1.66 9 2 C3.06 2.495 3.06 2.495 -3 3 C-2.01 2.67 -1.02 2.34 0 2 C0 1.34 0 0.68 0 0 Z " fill="#354FB3" transform="translate(224,343)"/>
<path d="M0 0 C0.66 0.66 1.32 1.32 2 2 C1.625 5.125 1.625 5.125 1 8 C0.01 8 -0.98 8 -2 8 C-1.34 5.36 -0.68 2.72 0 0 Z " fill="#3156D5" transform="translate(189,333)"/>
<path d="M0 0 C1.32 1.65 2.64 3.3 4 5 C3.01 6.485 3.01 6.485 2 8 C0.68 6.02 -0.64 4.04 -2 2 C-1.34 1.34 -0.68 0.68 0 0 Z " fill="#3F5DD2" transform="translate(222,265)"/>
<path d="M0 0 C3 2 3 2 3.6875 5.125 C3.790625 6.07375 3.89375 7.0225 4 8 C1 7 1 7 -0.25 4.5625 C-1 2 -1 2 0 0 Z " fill="#3568CE" transform="translate(327,208)"/>
<path d="M0 0 C0.66 0.66 1.32 1.32 2 2 C1.96712417 4.72869407 1.43602229 7.2966618 1 10 C0.34 10 -0.32 10 -1 10 C-0.67 6.7 -0.34 3.4 0 0 Z " fill="#3D5FC9" transform="translate(149,210)"/>
<path d="M0 0 C2.31 1.65 4.62 3.3 7 5 C6.01 5.66 5.02 6.32 4 7 C2.35 5.02 0.7 3.04 -1 1 C-0.67 0.67 -0.34 0.34 0 0 Z " fill="#3052A8" transform="translate(331,162)"/>
<path d="M0 0 C1.98 0.66 3.96 1.32 6 2 C5.67 2.66 5.34 3.32 5 4 C2.69 3.67 0.38 3.34 -2 3 C-1.34 2.01 -0.68 1.02 0 0 Z " fill="#335EDE" transform="translate(298,140)"/>
<path d="M0 0 C0.99 0.33 1.98 0.66 3 1 C1.8125 2.5 1.8125 2.5 0 4 C-2.6875 4.1875 -2.6875 4.1875 -5 4 C-3.36587557 2.29159719 -2.13093906 1.06546953 0 0 Z " fill="#4761D8" transform="translate(196,355)"/>
<path d="M0 0 C0.66 0.99 1.32 1.98 2 3 C0.02 4.32 -1.96 5.64 -4 7 C-4.33 6.01 -4.66 5.02 -5 4 C-3.35 2.68 -1.7 1.36 0 0 Z " fill="#395CCA" transform="translate(326,324)"/>
<path d="M0 0 C0.66 1.32 1.32 2.64 2 4 C-0.97 6.475 -0.97 6.475 -4 9 C-3.35455571 5.51460083 -1.89865603 2.97180943 0 0 Z " fill="#4469D7" transform="translate(199,299)"/>
<path d="M0 0 C4.75 1.875 4.75 1.875 7 3 C7 3.66 7 4.32 7 5 C4.69 4.34 2.38 3.68 0 3 C0 2.01 0 1.02 0 0 Z " fill="#315FD8" transform="translate(296,299)"/>
<path d="M0 0 C2.475 0.495 2.475 0.495 5 1 C5 2.32 5 3.64 5 5 C4.01 4.67 3.02 4.34 2 4 C2 3.34 2 2.68 2 2 C1.34 2 0.68 2 0 2 C0 1.34 0 0.68 0 0 Z " fill="#3F6FDE" transform="translate(334,168)"/>
<path d="M0 0 C3.63 0.33 7.26 0.66 11 1 C7.23312136 2.88343932 5.97041037 3.22057835 2 3 C2 2.34 2 1.68 2 1 C1.34 0.67 0.68 0.34 0 0 Z " fill="#3758CC" transform="translate(266,132)"/>
<path d="M0 0 C0.33 0.66 0.66 1.32 1 2 C1.66 2.33 2.32 2.66 3 3 C2.34 4.32 1.68 5.64 1 7 C0.01 6.67 -0.98 6.34 -2 6 C-1.34 4.02 -0.68 2.04 0 0 Z " fill="#4165D6" transform="translate(185,317)"/>
<path d="M0 0 C0.66 0 1.32 0 2 0 C4 3 4 3 3.625 5.1875 C3.41875 5.785625 3.2125 6.38375 3 7 C1.5 5.75 1.5 5.75 0 4 C0 2.68 0 1.36 0 0 Z " fill="#3E5FD0" transform="translate(160,296)"/>
<path d="M0 0 C0.99 0.33 1.98 0.66 3 1 C2.39816251 3.02045442 1.72693904 5.02111039 1 7 C0.01 7.495 0.01 7.495 -1 8 C-0.67 5.36 -0.34 2.72 0 0 Z " fill="#3B56AC" transform="translate(293,254)"/>
<path d="M0 0 C1.32 1.65 2.64 3.3 4 5 C2.02 5.99 2.02 5.99 0 7 C-0.38133299 5.0085944 -0.71325582 3.00720923 -1 1 C-0.67 0.67 -0.34 0.34 0 0 Z " fill="#0C0D0D" transform="translate(299,219)"/>
<path d="" fill="#000000" transform="translate(0,0)"/>
<path d="" fill="#000000" transform="translate(0,0)"/>
<path d="" fill="#000000" transform="translate(0,0)"/>
<path d="" fill="#000000" transform="translate(0,0)"/>
<path d="" fill="#000000" transform="translate(0,0)"/>
<path d="" fill="#000000" transform="translate(0,0)"/>
</svg>
